<svg width="449" height="416" viewBox="0 0 449 416" fill="none" xmlns="http://www.w3.org/2000/svg">
<g filter="url(#filter0_d_3_50)">
<path fill-rule="evenodd" clip-rule="evenodd" d="M398.116 353.588L50 350.577C57.3292 334.111 64.6585 317.645 70.8901 304.655C77.1218 291.664 82.2559 282.149 87.1668 273.971C92.0777 265.794 96.7654 258.955 101.23 253.937C105.694 248.919 109.936 245.723 113.656 243.864C117.376 242.006 120.576 241.485 124.371 241.448C128.165 241.411 132.555 241.857 136.573 243.344C140.591 244.831 144.237 247.358 154.096 253.305C163.955 259.252 180.027 268.619 196.155 274.984C212.283 281.35 228.467 284.713 244.223 285.875C259.979 287.037 275.306 285.996 287.714 283.747C300.122 281.498 309.609 278.042 317.84 275.626C326.071 273.21 333.047 271.834 337.865 271.528C342.683 271.221 345.343 271.983 347.994 273.516C350.644 275.049 353.286 277.354 356.355 280.42C359.424 283.487 362.922 287.315 366.4 291.943C369.879 296.57 373.339 301.997 376.52 307.628C379.7 313.259 382.602 319.095 385.244 324.54C387.885 329.986 390.266 335.041 392.089 339.018C393.912 342.995 395.177 345.894 396.089 348.143C397 350.392 397.558 351.99 397.837 352.789C398.116 353.588 398.116 353.588 398.116 353.588H398.116Z" fill="#524637"/>
<path fill-rule="evenodd" clip-rule="evenodd" d="M249.815 304.618H143.492V297.927H250.731L249.815 304.618Z" fill="#B4A082"/>
<path fill-rule="evenodd" clip-rule="evenodd" d="M248.899 311.308H143.492V304.618H249.815L248.899 311.308Z" fill="#CDBA97"/>
<path fill-rule="evenodd" clip-rule="evenodd" d="M247.982 317.999H143.492V311.308H248.899L247.982 317.999Z" fill="#B4A082"/>
<path fill-rule="evenodd" clip-rule="evenodd" d="M247.066 324.689H143.492V317.999H247.982L247.066 324.689Z" fill="#CDBA97"/>
<path fill-rule="evenodd" clip-rule="evenodd" d="M246.15 331.379H143.492V324.689H247.066L246.15 331.379Z" fill="#B4A082"/>
<path fill-rule="evenodd" clip-rule="evenodd" d="M245.233 338.07H143.492V331.379H246.15L245.233 338.07Z" fill="#CDBA97"/>
<path fill-rule="evenodd" clip-rule="evenodd" d="M244.146 344.76H143.492V338.07H245.233L244.429 343.941L244.146 344.76Z" fill="#B4A082"/>
<path fill-rule="evenodd" clip-rule="evenodd" d="M241.834 351.451H143.492V344.76H244.146L241.834 351.451Z" fill="#CDBA97"/>
<path fill-rule="evenodd" clip-rule="evenodd" d="M253.48 277.856H143.492V271.165H254.397L253.48 277.856Z" fill="#B4A082"/>
<path fill-rule="evenodd" clip-rule="evenodd" d="M252.564 284.546H143.492V277.856H253.48L252.564 284.546Z" fill="#CDBA97"/>
<path fill-rule="evenodd" clip-rule="evenodd" d="M251.648 291.237H143.492V284.546H252.564L251.648 291.237Z" fill="#B4A082"/>
<path fill-rule="evenodd" clip-rule="evenodd" d="M250.731 297.927H143.492V291.237H251.648L250.731 297.927Z" fill="#CDBA97"/>
<path fill-rule="evenodd" clip-rule="evenodd" d="M188.726 265.703L213.076 210.653H219.177L194.828 265.703H188.726Z" fill="#ECDBBC"/>
<path fill-rule="evenodd" clip-rule="evenodd" d="M194.828 265.703L219.177 210.653H225.279L200.929 265.703H194.828Z" fill="#D0BB96"/>
<path fill-rule="evenodd" clip-rule="evenodd" d="M200.929 265.703L225.279 210.653H231.38L207.03 265.703H200.929Z" fill="#ECDBBC"/>
<path fill-rule="evenodd" clip-rule="evenodd" d="M207.03 265.703L231.38 210.653H237.481L213.131 265.703H207.03Z" fill="#D0BB96"/>
<path fill-rule="evenodd" clip-rule="evenodd" d="M213.131 265.703L237.481 210.653H243.582L219.233 265.703H213.131Z" fill="#ECDBBC"/>
<path fill-rule="evenodd" clip-rule="evenodd" d="M219.233 265.703L243.582 210.653H249.684L225.334 265.703H219.233Z" fill="#D0BB96"/>
<path fill-rule="evenodd" clip-rule="evenodd" d="M225.334 265.703L249.684 210.653H255.785L231.435 265.703H225.334Z" fill="#ECDBBC"/>
<path fill-rule="evenodd" clip-rule="evenodd" d="M231.435 265.703L255.785 210.653H261.886L237.536 265.703H231.435Z" fill="#D0BB96"/>
<path fill-rule="evenodd" clip-rule="evenodd" d="M139.916 265.703L164.266 210.653H170.367L146.018 265.703H139.916Z" fill="#ECDBBC"/>
<path fill-rule="evenodd" clip-rule="evenodd" d="M146.018 265.703L170.367 210.653H176.469L152.119 265.703H146.018Z" fill="#D0BB96"/>
<path fill-rule="evenodd" clip-rule="evenodd" d="M152.119 265.703L176.469 210.653H182.57L158.22 265.703H152.119Z" fill="#ECDBBC"/>
<path fill-rule="evenodd" clip-rule="evenodd" d="M158.22 265.703L182.57 210.653H188.671L164.321 265.703H158.22Z" fill="#D0BB96"/>
<path fill-rule="evenodd" clip-rule="evenodd" d="M164.321 265.703L188.671 210.653H194.772L170.423 265.703H164.321Z" fill="#ECDBBC"/>
<path fill-rule="evenodd" clip-rule="evenodd" d="M170.423 265.703L194.772 210.653H200.874L176.524 265.703H170.423Z" fill="#D0BB96"/>
<path fill-rule="evenodd" clip-rule="evenodd" d="M176.524 265.703L200.874 210.653H206.975L182.625 265.703H176.524Z" fill="#ECDBBC"/>
<path fill-rule="evenodd" clip-rule="evenodd" d="M182.625 265.703L206.975 210.653H213.076L188.726 265.703H182.625Z" fill="#D0BB96"/>
<path fill-rule="evenodd" clip-rule="evenodd" d="M237.536 265.703L261.886 210.653H262.685L260.307 228.018L243.638 265.703H237.536Z" fill="#ECDBBC"/>
<path fill-rule="evenodd" clip-rule="evenodd" d="M243.638 265.703L260.307 228.018L257.57 247.998L249.739 265.703H243.638Z" fill="#D0BB96"/>
<path fill-rule="evenodd" clip-rule="evenodd" d="M249.739 265.703L257.57 247.998L255.145 265.703H249.739Z" fill="#ECDBBC"/>
<path d="M312.416 45.0178H282.732V50.0356H312.416V45.0178Z" fill="#CEB992"/>
<path d="M312.416 50.0358H282.732V55.0536H312.416V50.0358Z" fill="#ECDBBD"/>
<path d="M312.416 40H282.732V45.0178H312.416V40Z" fill="#ECDBBD"/>
<path d="M312.416 55.0536H282.732V60.0714H312.416V55.0536Z" fill="#CEB992"/>
<path d="M312.416 65.0894H282.732V70.1072H312.416V65.0894Z" fill="#CEB992"/>
<path d="M312.416 70.1072H282.732V75.125H312.416V70.1072Z" fill="#ECDBBD"/>
<path d="M312.416 60.0714H282.732V65.0892H312.416V60.0714Z" fill="#ECDBBD"/>
<path d="M312.416 75.1251H282.732V80.1429H312.416V75.1251Z" fill="#CEB992"/>
<path d="M312.416 80.1429H282.732V84.2261H312.416V80.1429Z" fill="#ECDBBD"/>
<path fill-rule="evenodd" clip-rule="evenodd" d="M267.106 201.621H328.041L329.278 210.653H265.869L267.106 201.621Z" fill="#ECDBBD"/>
<path fill-rule="evenodd" clip-rule="evenodd" d="M265.869 210.653H329.278L330.516 219.685H264.632L265.869 210.653Z" fill="#CEB992"/>
<path fill-rule="evenodd" clip-rule="evenodd" d="M264.632 219.685H330.515L331.753 228.717H263.395L264.632 219.685Z" fill="#ECDBBD"/>
<path fill-rule="evenodd" clip-rule="evenodd" d="M263.395 228.718H331.753L332.99 237.75H262.158L263.395 228.718Z" fill="#CEB992"/>
<path fill-rule="evenodd" clip-rule="evenodd" d="M262.158 237.75H332.99L334.227 246.782H260.921L262.158 237.75Z" fill="#ECDBBD"/>
<path fill-rule="evenodd" clip-rule="evenodd" d="M260.921 246.782H334.227L335.464 255.814H259.684L260.921 246.782Z" fill="#CEB992"/>
<path fill-rule="evenodd" clip-rule="evenodd" d="M259.684 255.814H335.464L336.701 264.846H258.447L259.684 255.814Z" fill="#ECDBBD"/>
<path fill-rule="evenodd" clip-rule="evenodd" d="M258.447 264.846H336.701L337.938 273.878H257.21L258.447 264.846Z" fill="#CEB992"/>
<path fill-rule="evenodd" clip-rule="evenodd" d="M257.209 273.878H337.938L339.175 282.911H255.972L257.209 273.878Z" fill="#ECDBBD"/>
<path fill-rule="evenodd" clip-rule="evenodd" d="M255.972 282.911H339.175L340.412 291.943H254.735L255.972 282.911Z" fill="#CEB992"/>
<path fill-rule="evenodd" clip-rule="evenodd" d="M254.735 291.943H340.412L341.649 300.975H253.498L254.735 291.943Z" fill="#ECDBBD"/>
<path fill-rule="evenodd" clip-rule="evenodd" d="M252.261 310.007H342.886L344.123 319.039H251.024L252.261 310.007Z" fill="#ECDBBD"/>
<path fill-rule="evenodd" clip-rule="evenodd" d="M251.024 319.039H344.123L345.36 328.071H249.787L251.024 319.039Z" fill="#CEB992"/>
<path fill-rule="evenodd" clip-rule="evenodd" d="M249.787 328.071H345.36L346.598 337.103H248.55L249.787 328.071Z" fill="#ECDBBD"/>
<path fill-rule="evenodd" clip-rule="evenodd" d="M248.55 337.104H346.598L347.835 346.136H247.313L248.55 337.104Z" fill="#CEB992"/>
<path fill-rule="evenodd" clip-rule="evenodd" d="M253.498 300.975H341.649L342.886 310.007H252.261L253.498 300.975Z" fill="#CEB992"/>
<path fill-rule="evenodd" clip-rule="evenodd" d="M247.313 346.136H347.835L348.524 351.166V355.168L245.857 352.336L247.313 346.136Z" fill="#ECDBBD"/>
<path fill-rule="evenodd" clip-rule="evenodd" d="M279.477 111.299H315.67L316.908 120.332H278.24L279.477 111.299Z" fill="#ECDBBD"/>
<path fill-rule="evenodd" clip-rule="evenodd" d="M278.24 120.332H316.908L318.145 129.364H277.003L278.24 120.332Z" fill="#CEB992"/>
<path fill-rule="evenodd" clip-rule="evenodd" d="M277.003 129.364H318.145L319.382 138.396H275.766L277.003 129.364Z" fill="#ECDBBD"/>
<path fill-rule="evenodd" clip-rule="evenodd" d="M275.766 138.396H319.382L320.619 147.428H274.529L275.766 138.396Z" fill="#CEB992"/>
<path fill-rule="evenodd" clip-rule="evenodd" d="M274.529 147.428H320.619L321.856 156.46H273.291L274.529 147.428Z" fill="#ECDBBD"/>
<path fill-rule="evenodd" clip-rule="evenodd" d="M273.291 156.46H321.856L323.093 165.492H272.054L273.291 156.46Z" fill="#CEB992"/>
<path fill-rule="evenodd" clip-rule="evenodd" d="M272.054 165.492H323.093L324.33 174.525H270.817L272.054 165.492Z" fill="#ECDBBD"/>
<path fill-rule="evenodd" clip-rule="evenodd" d="M270.817 174.525H324.33L325.567 183.557H269.58L270.817 174.525Z" fill="#CEB992"/>
<path fill-rule="evenodd" clip-rule="evenodd" d="M269.58 183.557H325.567L326.804 192.589H268.343L269.58 183.557Z" fill="#ECDBBD"/>
<path fill-rule="evenodd" clip-rule="evenodd" d="M268.343 192.589H326.804L328.041 201.621H267.106L268.343 192.589Z" fill="#CEB992"/>
<path fill-rule="evenodd" clip-rule="evenodd" d="M313.196 93.2352H281.951L282.319 90.5479H312.828L313.196 93.2352Z" fill="#CEB992"/>
<path fill-rule="evenodd" clip-rule="evenodd" d="M281.951 93.2351H313.196L314.433 102.267H280.714L281.951 93.2351Z" fill="#ECDBBD"/>
<path fill-rule="evenodd" clip-rule="evenodd" d="M280.714 102.267H314.433L315.67 111.299H279.477L280.714 102.267Z" fill="#CEB992"/>
<path d="M351.65 350.746L315.579 87.387H297.574H279.568L243.497 350.746L246.624 351.166L282.319 90.5479H297.574H312.828L348.524 351.166L351.65 350.746Z" fill="#94846D"/>
<path fill-rule="evenodd" clip-rule="evenodd" d="M285.981 99.1714H288.995V106.838H305.346V99.1714H308.36V352.853H305.346V344.077H288.995V352.853H285.981V99.1714ZM305.346 341.679V335.045H288.995V341.679H305.346ZM305.346 332.647V326.012H288.995V332.647H305.346ZM305.346 323.615V316.98H288.995V323.615H305.346ZM305.346 314.582V307.947H288.995V314.582H305.346ZM305.346 305.55V298.915H288.995V305.55H305.346ZM305.346 296.518V289.883H288.995V296.518H305.346ZM305.346 287.485V280.85H288.995V287.485H305.346ZM305.346 278.453V271.818H288.995V278.453H305.346ZM305.346 269.421V262.786H288.995V269.421H305.346ZM305.346 260.388V253.753H288.995V260.388H305.346ZM305.346 251.356V244.721H288.995V251.356H305.346ZM305.346 242.323V235.689H288.995V242.323H305.346ZM305.346 233.291V226.656H288.995V233.291H305.346ZM305.346 224.259V217.624H288.995V224.259H305.346ZM305.346 215.226V208.591H288.995V215.226H305.346ZM305.346 206.194V199.559H288.995V206.194H305.346ZM305.346 197.162V190.527H288.995V197.162H305.346ZM305.346 188.129V181.494H288.995V188.129H305.346ZM305.346 179.097V172.462H288.995V179.097H305.346ZM305.346 170.064V163.43H288.995V170.064H305.346ZM305.346 161.032V154.397H288.995V161.032H305.346ZM305.346 152V145.365H288.995V152H305.346ZM305.346 142.967V136.332H288.995V142.967H305.346ZM305.346 133.935V127.3H288.995V133.935H305.346ZM305.346 124.903V118.268H288.995V124.903H305.346ZM305.346 115.87V109.235H288.995V115.87H305.346Z" fill="#94846D"/>
<path fill-rule="evenodd" clip-rule="evenodd" d="M275.119 352.99L95.8708 352.098C103.311 348.456 110.752 344.813 118.937 340.799C127.122 336.784 136.051 332.398 143.38 328.458C150.709 324.518 156.439 321.024 161.461 318.72C166.483 316.415 174.259 314.631 179.803 314.52C185.346 314.408 188.657 315.969 195.168 317.754C201.678 319.538 207.929 322.214 215.779 325.485C223.629 328.756 233.078 332.621 241.356 336.58C249.634 340.538 256.74 344.59 261.802 347.173C266.864 349.756 269.882 350.871 271.761 351.596C273.64 352.321 274.379 352.655 275.119 352.99L275.119 352.99ZM201.07 345.938C200.205 346.338 199.219 346.932 199.023 347.573C198.828 348.215 199.424 348.902 200.391 349.209C201.358 349.515 202.697 349.441 203.572 349.153C204.446 348.865 204.855 348.363 204.967 347.778C205.079 347.192 204.893 346.523 204.586 346.068C204.279 345.613 203.851 345.371 203.265 345.352C202.679 345.334 201.935 345.538 201.07 345.938L201.07 345.938ZM208.39 342.082C209.115 341.598 209.952 341.134 211.003 340.976C212.054 340.818 213.319 340.967 214.277 341.431C215.235 341.896 215.886 342.676 216.695 343.141C217.505 343.606 218.472 343.754 219.532 343.829C220.592 343.903 221.746 343.903 223.011 344.126C224.276 344.349 225.652 344.795 226.461 345.371C227.271 345.947 227.512 346.653 227.298 347.48C227.084 348.307 226.415 349.255 225.336 349.646C224.257 350.036 222.769 349.868 221.476 349.348C220.183 348.828 219.086 347.954 217.923 347.592C216.76 347.23 215.533 347.378 214.054 347.462C212.575 347.545 210.845 347.564 209.543 347.295C208.241 347.025 207.366 346.468 206.92 345.799C206.473 345.13 206.455 344.349 206.752 343.708C207.05 343.067 207.664 342.565 208.389 342.082L208.39 342.082ZM225.187 337.9C226.768 337.491 228.963 337.045 230.954 336.859C232.944 336.674 234.73 336.748 236.144 337.175C237.557 337.603 238.599 338.383 240.069 339.108C241.538 339.833 243.436 340.502 244.552 341.32C245.668 342.137 246.002 343.104 244.924 343.717C243.845 344.331 241.352 344.591 239.287 344.572C237.222 344.553 235.586 344.256 233.874 343.903C232.163 343.55 230.377 343.141 228.48 343.011C226.582 342.881 224.573 343.03 223.308 342.788C222.043 342.546 221.522 341.914 221.374 341.227C221.225 340.539 221.448 339.796 222.043 339.238C222.639 338.681 223.606 338.309 225.187 337.9L225.187 337.9ZM188.802 323.869C187.965 324.203 186.96 324.686 186.765 325.42C186.569 326.154 187.183 327.14 188.011 327.651C188.839 328.162 189.881 328.199 190.727 327.836C191.573 327.474 192.224 326.712 192.429 326.024C192.634 325.337 192.392 324.724 192.076 324.259C191.759 323.794 191.369 323.478 190.839 323.413C190.308 323.348 189.639 323.534 188.802 323.869V323.869ZM183.295 329.184C181.826 328.756 180.263 328.608 178.961 328.199C177.659 327.79 176.617 327.121 175.371 326.656C174.125 326.192 172.674 325.931 171.427 326.34C170.181 326.749 169.139 327.827 168.842 328.793C168.544 329.76 168.991 330.615 169.735 331.005C170.479 331.395 171.52 331.321 172.339 331.414C173.157 331.507 173.753 331.767 174.906 332.399C176.059 333.031 177.771 334.034 179.628 334.322C181.486 334.609 183.49 334.181 184.83 333.512C186.169 332.843 186.843 331.933 186.492 331.125C186.141 330.317 184.765 329.611 183.295 329.184H183.295ZM123.36 343.252C122.039 343.55 120.681 343.977 120.096 344.563C119.51 345.148 119.696 345.891 120.579 346.365C121.463 346.839 123.044 347.044 124.439 346.941C125.834 346.839 127.043 346.43 127.685 345.882C128.327 345.334 128.401 344.646 128.234 344.079C128.066 343.513 127.657 343.067 126.811 342.927C125.964 342.788 124.681 342.955 123.36 343.252V343.252Z" fill="#74644D"/>
<path fill-rule="evenodd" clip-rule="evenodd" d="M399 356C393.01 352.432 387.021 348.864 381.7 346.355C376.38 343.846 371.73 342.396 366.744 341.597C361.759 340.798 356.439 340.649 351.714 341.096C346.989 341.542 342.86 342.582 337.949 343.79C333.038 344.998 327.346 346.374 321.412 347.414C315.477 348.455 309.302 349.161 302.252 349.812C295.201 350.462 287.277 351.057 280.759 351.28C274.242 351.503 269.131 351.355 265.706 351.392C262.281 351.429 260.541 351.652 259.265 352.135C257.988 352.618 257.174 353.362 256.361 354.105L399 356L399 356Z" fill="#948069"/>
<path d="M282.732 40V84.226H312.416V40H315.579V87.3869H279.568V40H282.732Z" fill="#94846D"/>
<path d="M301.177 40H293.587V77.5785H301.177V40Z" fill="#94846D"/>
<path fill-rule="evenodd" clip-rule="evenodd" d="M143.492 271.165H254.397L255.145 265.703H143.492V271.165Z" fill="#74644D"/>
<path fill-rule="evenodd" clip-rule="evenodd" d="M161.965 208.499H262.98L262.685 210.653H161.965V208.499Z" fill="#978872"/>
<path fill-rule="evenodd" clip-rule="evenodd" d="M167.129 188.291C166.292 188.644 165.455 188.997 164.506 189.526C163.557 190.056 162.497 190.762 161.511 191.747C160.525 192.732 159.614 193.996 158.73 195.418C157.846 196.839 156.991 198.419 156.135 199.999C155.168 198.698 154.2 197.397 152.777 196.189C151.354 194.981 149.476 193.866 147.773 193.215C146.071 192.565 144.546 192.379 143.021 192.193C143.83 191.617 144.639 191.041 145.611 190.781C146.583 190.521 147.718 190.576 148.787 190.841C149.857 191.106 150.861 191.58 151.754 192.1C152.647 192.621 153.428 193.187 154.056 193.796C154.684 194.405 155.158 195.055 155.633 195.706C156.358 194.237 157.084 192.769 157.818 191.673C158.553 190.576 159.297 189.851 160.111 189.308C160.925 188.764 161.809 188.402 162.655 188.174C163.502 187.946 164.311 187.854 165.05 187.895C165.789 187.937 166.459 188.114 167.129 188.29V188.291Z" fill="#5B5B5B"/>
<path fill-rule="evenodd" clip-rule="evenodd" d="M137.58 212.474C137.264 212.307 136.948 212.14 136.232 212C135.515 211.861 134.399 211.749 133.246 211.963C132.093 212.177 130.902 212.716 130 213.608C129.098 214.5 128.484 215.745 127.87 216.99C129.377 215.968 130.884 214.946 132.288 214.5C133.692 214.054 134.995 214.184 136.083 214.518C137.171 214.853 138.045 215.392 138.92 215.931C139.05 215.188 139.18 214.444 139.561 213.682C139.943 212.92 140.575 212.14 141.217 211.638C141.859 211.136 142.51 210.913 143.31 210.755C144.11 210.597 145.058 210.504 145.867 210.504C146.677 210.504 147.346 210.597 148.016 210.69C147.663 210.337 147.309 209.984 146.733 209.64C146.156 209.296 145.356 208.962 144.379 208.822C143.403 208.683 142.249 208.739 141.319 208.989C140.389 209.24 139.682 209.686 139.096 210.3C138.51 210.913 138.045 211.693 137.58 212.474L137.58 212.474Z" fill="#5B5B5B"/>
<path d="M173.017 277.856H160.74V304.618H173.017V277.856Z" fill="#94846D"/>
<path fill-rule="evenodd" clip-rule="evenodd" d="M163.084 304.618H160.74V277.856H173.017V280.214H163.084V304.618Z" fill="#74644D"/>
<path d="M202.213 277.856H189.936V304.618H202.213V277.856Z" fill="#94846D"/>
<path fill-rule="evenodd" clip-rule="evenodd" d="M192.28 304.618H189.936V277.856H202.213V280.214H192.28V304.618Z" fill="#74644D"/>
</g>
<defs>
<filter id="filter0_d_3_50" x="0" y="0" width="449" height="416" filterUnits="userSpaceOnUse" color-interpolation-filters="sRGB">
<feFlood flood-opacity="0" result="BackgroundImageFix"/>
<feColorMatrix in="SourceAlpha" type="matrix" values="0 0 0 0 0 0 0 0 0 0 0 0 0 0 0 0 0 0 127 0" result="hardAlpha"/>
<feOffset dy="10"/>
<feGaussianBlur stdDeviation="25"/>
<feComposite in2="hardAlpha" operator="out"/>
<feColorMatrix type="matrix" values="0 0 0 0 0 0 0 0 0 0 0 0 0 0 0 0 0 0 0.7 0"/>
<feBlend mode="normal" in2="BackgroundImageFix" result="effect1_dropShadow_3_50"/>
<feBlend mode="normal" in="SourceGraphic" in2="effect1_dropShadow_3_50" result="shape"/>
</filter>
</defs>
</svg>
