<svg xmlns="http://www.w3.org/2000/svg" xml:space="preserve" style="shape-rendering:geometricPrecision;text-rendering:geometricPrecision;image-rendering:optimizeQuality;fill-rule:evenodd;clip-rule:evenodd" viewBox="0 0 11034.37 4370.94"><defs><style>.fil0{fill:#d31e47}.fil1{fill:#fefefe;fill-rule:nonzero}</style></defs><g id="Слой_x0020_1"><g id="_1731583974336"><path d="M519.86 0h9994.65c285.92 0 519.86 233.94 519.86 519.86v3331.21c0 285.92-233.94 519.86-519.86 519.86H519.86C233.94 4370.93 0 4136.99 0 3851.07V519.86C0 233.94 233.94 0 519.86 0z" class="fil0"/><path d="M519.86 0h9994.65c285.92 0 519.86 233.94 519.86 519.86v3331.21c0 285.92-233.94 519.86-519.86 519.86H519.86C233.94 4370.93 0 4136.99 0 3851.07V519.86C0 233.94 233.94 0 519.86 0z" class="fil0"/><path d="M1350.83 1643.97h29.3c25.05-50.19 44.88-100.3 59.4-150.31 14.52-50.1 25.32-104.1 32.4-161.99h220.95v312.3h50.54v177.4h-77.54v-110.48h-237.5v110.48h-77.54v-177.4zm184.92-245.38c-5.58 39.57-14.78 81.53-27.62 125.79-12.92 44.26-27.35 84.18-43.47 119.59h148.1v-245.38h-77.02zm519.45 312.3h-79.05v-230.51h-72.85c-5.58 64.89-12.3 113.22-20.27 145.18-7.97 31.87-18.5 54.97-31.78 69.22-13.19 14.25-30.54 21.42-51.96 21.42-18.32 0-33.37-2.74-45.15-8.32v-63.29c8.5 3.45 16.91 5.22 25.41 5.22 9.83 0 18.15-7.08 24.79-21.25 6.64-14.25 12.57-37.89 17.88-70.99 5.31-33.2 9.83-78.7 13.63-136.68h219.36v290zm127.12 0h-85.6l78.08-114.55c-18.68-7.79-32.75-19.03-42.4-33.73-9.56-14.69-14.43-32.04-14.43-51.96 0-27.97 10.53-49.92 31.51-65.86 21.07-15.93 49.75-23.9 86.04-23.9h134.91v290h-79.05v-107.82h-43.64l-65.42 107.82zm13.19-199.7c0 12.22 4.78 21.69 14.34 28.5 9.47 6.82 21.95 10.27 37.36 10.27h44.17v-73.3h-54.26c-13.01 0-23.19 3.19-30.54 9.47-7.35 6.38-11.07 14.7-11.07 25.05zm663.12-14.25c0 15.49-4.87 28.77-14.6 39.75-9.83 11.06-24.17 18.06-43.2 21.16v2.12c20.54 2.39 36.91 9.47 48.86 21.16 12.04 11.6 18.06 26.03 18.06 43.11 0 28.24-11.07 49.66-33.2 64.45-22.13 14.78-53.73 22.22-94.9 22.22h-148.54v-290h148.54c39.75 0 69.49 6.46 89.32 19.3 19.83 12.92 29.65 31.78 29.65 56.74zm-72.85 123.13c0-11.42-4.43-19.65-13.19-24.79-8.85-5.05-22.04-7.61-39.66-7.61h-62.76v68.52h64.27c16.82 0 29.57-3.19 38.24-9.47 8.76-6.28 13.1-15.22 13.1-26.64zm-7.26-116.94c0-17.62-13.99-26.47-41.96-26.47h-66.39v57.36h57.27c16.82 0 29.48-2.39 38.15-7.26 8.58-4.87 12.92-12.75 12.92-23.64zm231.13 29.83h38.15c44.26 0 77.02 7.08 98.26 21.24 21.24 14.16 31.87 35.67 31.87 64.35 0 30.63-10.62 53.64-31.87 69.14-21.24 15.49-53.11 23.19-95.43 23.19h-120.04v-290h79.05v112.07zm89.23 86.66c0-11.24-4.52-19.39-13.55-24.43-8.94-5.04-22.31-7.52-40.19-7.52h-35.5v68.52h36.56c35.05 0 52.67-12.22 52.67-36.56zm200.15 91.27h-79.05v-290h79.05v290zm65.5-173.68c0-66.57 12.66-117.11 37.98-151.64 25.32-34.43 64.89-56.3 118.62-65.5 26.11-4.43 65.06-10.18 116.94-17.09l9.03 69.05c-22.4 2.57-62.23 8.14-119.5 16.55-21.78 3.45-37.98 8.68-48.69 15.58-10.8 6.91-18.77 16.73-23.99 29.48-5.31 12.83-8.59 29.83-9.74 51.08h3.89c9.12-14.25 21.24-25.14 36.3-32.75 15.05-7.61 31.16-11.42 48.42-11.42 35.85 0 63.65 10.98 83.56 32.84 19.83 21.87 29.74 53.2 29.74 94.1 0 47.09-12.57 83.65-37.71 109.68-25.14 26.02-59.84 39.04-104.1 39.04-44.26 0-78.78-15.85-103.57-47.62-24.79-31.69-37.18-75.51-37.18-131.37zm145.44 114.73c37.53 0 56.21-25.85 56.21-77.54 0-50.28-16.91-75.42-50.81-75.42-9.3 0-18.59 2.12-27.8 6.46-9.29 4.34-17.79 10-25.41 17-7.7 6.99-13.37 14.07-17 21.16 0 35.05 5.58 61.88 16.82 80.47 11.24 18.59 27.26 27.89 47.98 27.89zm265.57-86.57c0 28.68 4.69 50.37 14.07 65.06 9.47 14.7 24.79 22.04 46.03 22.04 21.07 0 36.21-7.26 45.5-21.87 9.21-14.61 13.81-36.38 13.81-65.24 0-28.68-4.61-50.19-13.99-64.53-9.3-14.34-24.61-21.51-45.85-21.51-21.07 0-36.3 7.17-45.59 21.42-9.38 14.25-13.99 35.76-13.99 64.62zm200.33.18c0 47.18-12.39 84.09-37.27 110.74-24.87 26.64-59.57 39.92-104.01 39.92-27.8 0-52.32-6.11-73.65-18.32-21.24-12.13-37.53-29.66-48.95-52.49-11.42-22.84-17.09-49.49-17.09-79.85 0-47.45 12.3-84.27 37-110.56 24.79-26.29 59.49-39.39 104.28-39.39 27.79 0 52.32 6.02 73.65 18.15 21.24 12.13 37.53 29.48 48.95 52.14 11.42 22.66 17.09 49.22 17.09 79.67zm224.76 150.66c-34.08 0-60.81-12.39-80.2-37.09h-4.07c2.75 24.17 4.07 38.15 4.07 41.96v117.29h-79.05V1420.9h64.27l11.15 37.71h3.63c18.59-28.68 45.94-43.02 82.33-43.02 34.17 0 60.99 13.19 80.38 39.66 19.39 26.47 29.04 63.2 29.04 110.3 0 30.89-4.51 57.8-13.63 80.64-9.03 22.84-21.95 40.19-38.77 52.14-16.73 11.95-36.47 17.88-59.13 17.88zm-23.37-237.42c-19.47 0-33.82 6.02-42.76 17.97-9.03 12.04-13.72 31.87-14.07 59.58v8.5c0 31.16 4.69 53.38 13.9 66.92 9.29 13.45 23.9 20.18 44 20.18 35.5 0 53.2-29.21 53.2-87.64 0-28.5-4.34-49.84-13.1-64.09s-22.4-21.42-41.16-21.42zm384.36 232.1-15.32-39.39h-2.04c-13.37 16.82-27.09 28.51-41.16 34.97-14.07 6.46-32.4 9.74-55.06 9.74-27.88 0-49.75-7.97-65.77-23.9-16.02-15.93-23.99-38.6-23.99-67.98 0-30.81 10.8-53.56 32.31-68.16 21.51-14.61 54-22.75 97.37-24.26l50.28-1.59v-12.75c0-29.39-15.05-44.08-45.15-44.08-23.11 0-50.37 6.99-81.62 20.98l-26.2-53.29c33.37-17.44 70.37-26.11 111.01-26.11 38.86 0 68.69 8.5 89.41 25.4 20.8 16.91 31.16 42.67 31.16 77.28v193.16h-55.24zm-23.37-134.38-30.54 1.06c-23.02.71-40.19 4.78-51.43 12.48-11.24 7.61-16.82 19.21-16.82 34.79 0 22.31 12.83 33.46 38.42 33.46 18.32 0 32.93-5.31 43.91-15.85 10.98-10.53 16.47-24.61 16.47-42.05v-23.9zm377.1-155.62v111.54h110.48v-111.54h79.05v290h-79.05v-119.5h-110.48v119.5h-79.05v-290h79.05zm335.68 144.47c0 28.68 4.69 50.37 14.07 65.06 9.47 14.7 24.79 22.04 46.03 22.04 21.07 0 36.21-7.26 45.5-21.87 9.21-14.61 13.81-36.38 13.81-65.24 0-28.68-4.61-50.19-13.99-64.53-9.3-14.34-24.61-21.51-45.85-21.51-21.07 0-36.3 7.17-45.59 21.42-9.38 14.25-13.99 35.76-13.99 64.62zm200.33.18c0 47.18-12.39 84.09-37.27 110.74-24.87 26.64-59.57 39.92-104.01 39.92-27.8 0-52.32-6.11-73.65-18.32-21.24-12.13-37.53-29.66-48.95-52.49-11.42-22.84-17.09-49.49-17.09-79.85 0-47.45 12.3-84.27 37-110.56 24.79-26.29 59.49-39.39 104.28-39.39 27.79 0 52.32 6.02 73.65 18.15 21.24 12.13 37.53 29.48 48.95 52.14 11.42 22.66 17.09 49.22 17.09 79.67zm333.02-68.6c0 15.49-4.87 28.77-14.6 39.75-9.83 11.06-24.17 18.06-43.2 21.16v2.12c20.54 2.39 36.91 9.47 48.86 21.16 12.04 11.6 18.06 26.03 18.06 43.11 0 28.24-11.07 49.66-33.2 64.45-22.13 14.78-53.73 22.22-94.9 22.22h-148.54v-290h148.54c39.75 0 69.49 6.46 89.32 19.3 19.83 12.92 29.65 31.78 29.65 56.74zm-72.85 123.13c0-11.42-4.43-19.65-13.19-24.79-8.85-5.05-22.04-7.61-39.66-7.61h-62.76v68.52h64.27c16.82 0 29.57-3.19 38.24-9.47 8.76-6.28 13.1-15.22 13.1-26.64zm-7.26-116.94c0-17.62-13.99-26.47-41.96-26.47h-66.39v57.36h57.27c16.82 0 29.48-2.39 38.15-7.26 8.58-4.87 12.92-12.75 12.92-23.64zm215.11 62.23c0 28.68 4.69 50.37 14.07 65.06 9.47 14.7 24.79 22.04 46.03 22.04 21.07 0 36.21-7.26 45.5-21.87 9.21-14.61 13.81-36.38 13.81-65.24 0-28.68-4.61-50.19-13.99-64.53-9.3-14.34-24.61-21.51-45.85-21.51-21.07 0-36.3 7.17-45.59 21.42-9.38 14.25-13.99 35.76-13.99 64.62zm200.33.18c0 47.18-12.39 84.09-37.27 110.74-24.87 26.64-59.57 39.92-104.01 39.92-27.8 0-52.32-6.11-73.65-18.32-21.24-12.13-37.53-29.66-48.95-52.49-11.42-22.84-17.09-49.49-17.09-79.85 0-47.45 12.3-84.27 37-110.56 24.79-26.29 59.49-39.39 104.28-39.39 27.79 0 52.32 6.02 73.65 18.15 21.24 12.13 37.53 29.48 48.95 52.14 11.42 22.66 17.09 49.22 17.09 79.67zm265.65-144.65v59.49h-121.1v230.51h-79.05v-290h200.15zm111.63 144.47c0 28.68 4.69 50.37 14.07 65.06 9.47 14.7 24.79 22.04 46.03 22.04 21.07 0 36.21-7.26 45.5-21.87 9.21-14.61 13.81-36.38 13.81-65.24 0-28.68-4.61-50.19-13.99-64.53-9.3-14.34-24.61-21.51-45.85-21.51-21.07 0-36.3 7.17-45.59 21.42-9.38 14.25-13.99 35.76-13.99 64.62zm200.33.18c0 47.18-12.39 84.09-37.27 110.74-24.87 26.64-59.57 39.92-104.01 39.92-27.8 0-52.32-6.11-73.65-18.32-21.24-12.13-37.53-29.66-48.95-52.49-11.42-22.84-17.09-49.49-17.09-79.85 0-47.45 12.3-84.27 37-110.56 24.79-26.29 59.49-39.39 104.28-39.39 27.79 0 52.32 6.02 73.65 18.15 21.24 12.13 37.53 29.48 48.95 52.14 11.42 22.66 17.09 49.22 17.09 79.67zm568.75 145.35h-73.92v-228.56l-4.16 16.11c-9.3 36.47-17.7 64.09-25.14 82.77l-51.25 129.68h-56.3l-52.05-130.75c-7.44-19.03-15.4-45.77-23.9-80.11l-4.87-17.7v228.56h-73.65v-290h108.88l49.75 123.75c5.22 13.28 10 28.59 14.43 45.85 4.34 17.35 7.35 32.13 8.94 44.35 5.67-25.94 10.09-44.53 13.28-55.86 3.28-11.33 6.73-21.78 10.53-31.25 3.81-9.56 20.98-51.78 51.61-126.85h107.82v290zm267.25 0L7518 1671.5h-2.04c-13.37 16.82-27.09 28.51-41.16 34.97-14.07 6.46-32.4 9.74-55.06 9.74-27.88 0-49.75-7.97-65.77-23.9-16.02-15.93-23.99-38.6-23.99-67.98 0-30.81 10.8-53.56 32.31-68.16 21.51-14.61 54-22.75 97.37-24.26l50.28-1.59v-12.75c0-29.39-15.05-44.08-45.15-44.08-23.11 0-50.37 6.99-81.62 20.98l-26.2-53.29c33.37-17.44 70.37-26.11 111.01-26.11 38.86 0 68.69 8.5 89.41 25.4 20.8 16.91 31.16 42.67 31.16 77.28v193.16h-55.24zm-23.37-134.38-30.54 1.06c-23.02.71-40.19 4.78-51.43 12.48-11.24 7.61-16.82 19.21-16.82 34.79 0 22.31 12.83 33.46 38.42 33.46 18.32 0 32.93-5.31 43.91-15.85 10.98-10.53 16.47-24.61 16.47-42.05v-23.9zm319.3 139.69c-34.08 0-60.81-12.39-80.2-37.09h-4.07c2.75 24.17 4.07 38.15 4.07 41.96v117.29H7670v-417.47h64.27l11.15 37.71h3.63c18.59-28.68 45.94-43.02 82.33-43.02 34.17 0 60.99 13.19 80.38 39.66 19.39 26.47 29.04 63.2 29.04 110.3 0 30.89-4.51 57.8-13.63 80.64-9.03 22.84-21.95 40.19-38.77 52.14-16.73 11.95-36.47 17.88-59.13 17.88zm-23.37-237.42c-19.47 0-33.82 6.02-42.76 17.97-9.03 12.04-13.72 31.87-14.07 59.58v8.5c0 31.16 4.69 53.38 13.9 66.92 9.29 13.45 23.9 20.18 44 20.18 35.5 0 53.2-29.21 53.2-87.64 0-28.5-4.34-49.84-13.1-64.09s-22.4-21.42-41.16-21.42zm631.87 232.1h-431.63v-290h79.05v230.51h97.2v-230.51h79.14v230.51h97.2v-230.51h79.05v290zm242.37 5.31c-34.08 0-60.81-12.39-80.2-37.09h-4.07c2.75 24.17 4.07 38.15 4.07 41.96v117.29h-79.05v-417.47h64.27l11.15 37.71h3.63c18.59-28.68 45.94-43.02 82.33-43.02 34.17 0 60.99 13.19 80.38 39.66 19.39 26.47 29.04 63.2 29.04 110.3 0 30.89-4.51 57.8-13.63 80.64-9.03 22.84-21.95 40.19-38.77 52.14-16.73 11.95-36.47 17.88-59.13 17.88zm-23.37-237.42c-19.47 0-33.82 6.02-42.76 17.97-9.03 12.04-13.72 31.87-14.07 59.58v8.5c0 31.16 4.69 53.38 13.9 66.92 9.29 13.45 23.9 20.18 44 20.18 35.5 0 53.2-29.21 53.2-87.64 0-28.5-4.34-49.84-13.1-64.09s-22.4-21.42-41.16-21.42zm153.5-57.89h86.66l54.71 163.15c4.69 14.16 7.88 30.89 9.65 50.28h1.5c1.95-17.79 5.67-34.61 11.15-50.28l53.73-163.15h84.81l-122.69 327c-11.24 30.28-27.26 52.94-48.16 67.9-20.8 15.05-45.15 22.57-73.03 22.57-13.63 0-27-1.51-40.19-4.43v-62.67c9.56 2.21 19.92 3.36 31.16 3.36 13.99 0 26.2-4.25 36.65-12.83 10.53-8.59 18.68-21.51 24.52-38.77l4.69-14.25-115.17-287.87zm583.36 0v59.49h-94.81v230.51h-79.14v-230.51h-95.07v-59.49h269.02zm238.21 290-15.32-39.39h-2.04c-13.37 16.82-27.09 28.51-41.16 34.97-14.07 6.46-32.4 9.74-55.06 9.74-27.88 0-49.75-7.97-65.77-23.9-16.02-15.93-23.99-38.6-23.99-67.98 0-30.81 10.8-53.56 32.31-68.16 21.51-14.61 54-22.75 97.37-24.26l50.28-1.59v-12.75c0-29.39-15.05-44.08-45.15-44.08-23.11 0-50.37 6.99-81.62 20.98l-26.2-53.29c33.37-17.44 70.37-26.11 111.01-26.11 38.86 0 68.69 8.5 89.41 25.4 20.8 16.91 31.16 42.67 31.16 77.28v193.16h-55.24zm-23.37-134.38-30.54 1.06c-23.02.71-40.19 4.78-51.43 12.48-11.24 7.61-16.82 19.21-16.82 34.79 0 22.31 12.83 33.46 38.42 33.46 18.32 0 32.93-5.31 43.91-15.85 10.98-10.53 16.47-24.61 16.47-42.05v-23.9zM1948.52 2144.21v111.54H2059v-111.54h79.05v290H2059v-119.5h-110.48v119.5h-79.05v-290h79.05zm392.77 50.99c-16.82 0-29.92 5.31-39.48 15.93-9.47 10.62-14.96 25.67-16.38 45.15h111.1c-.36-19.47-5.4-34.53-15.32-45.15-9.83-10.62-23.19-15.93-39.92-15.93zm11.15 244.32c-46.74 0-83.21-12.92-109.5-38.68-26.29-25.76-39.39-62.23-39.39-109.41 0-48.6 12.13-86.13 36.38-112.69 24.34-26.56 57.89-39.83 100.82-39.83 40.99 0 72.85 11.68 95.69 34.97 22.84 23.37 34.26 55.5 34.26 96.67v38.33h-187.05c.89 22.49 7.53 40.1 19.92 52.76 12.48 12.66 30.01 18.94 52.49 18.94 17.44 0 33.99-1.86 49.57-5.49 15.49-3.63 31.78-9.38 48.77-17.35V2419c-13.9 6.91-28.68 12.13-44.44 15.49-15.67 3.36-34.88 5.05-57.54 5.05zM2598 2288.68c0 28.68 4.69 50.37 14.07 65.06 9.47 14.7 24.79 22.04 46.03 22.04 21.07 0 36.21-7.26 45.5-21.87 9.21-14.61 13.81-36.38 13.81-65.24 0-28.68-4.61-50.19-13.99-64.53-9.3-14.34-24.61-21.51-45.85-21.51-21.07 0-36.3 7.17-45.59 21.42-9.38 14.25-13.99 35.76-13.99 64.62zm200.33.18c0 47.18-12.39 84.09-37.27 110.74-24.87 26.64-59.57 39.92-104.01 39.92-27.8 0-52.32-6.11-73.65-18.32-21.24-12.13-37.53-29.66-48.95-52.49-11.42-22.84-17.09-49.49-17.09-79.85 0-47.45 12.3-84.27 37-110.56 24.79-26.29 59.49-39.39 104.28-39.39 27.79 0 52.32 6.02 73.65 18.15 21.24 12.13 37.53 29.48 48.95 52.14 11.42 22.66 17.09 49.22 17.09 79.67zm47.89-28.33c0-66.57 12.66-117.11 37.98-151.64 25.32-34.43 64.89-56.3 118.62-65.5 26.11-4.43 65.06-10.18 116.94-17.09l9.03 69.05c-22.4 2.57-62.23 8.14-119.5 16.55-21.78 3.45-37.98 8.68-48.69 15.58-10.8 6.91-18.77 16.73-23.99 29.48-5.31 12.83-8.59 29.83-9.74 51.08h3.89c9.12-14.25 21.24-25.14 36.3-32.75 15.05-7.61 31.16-11.42 48.42-11.42 35.85 0 63.65 10.98 83.56 32.84 19.83 21.87 29.74 53.2 29.74 94.1 0 47.09-12.57 83.65-37.71 109.68-25.14 26.02-59.84 39.04-104.1 39.04-44.26 0-78.78-15.85-103.57-47.62-24.79-31.69-37.18-75.51-37.18-131.37zm145.44 114.73c37.53 0 56.21-25.85 56.21-77.54 0-50.28-16.91-75.42-50.81-75.42-9.3 0-18.59 2.12-27.8 6.46-9.29 4.34-17.79 10-25.41 17-7.7 6.99-13.37 14.07-17 21.16 0 35.05 5.58 61.88 16.82 80.47 11.24 18.59 27.26 27.89 47.98 27.89zm261.94-89.14-93.39-141.9h89.76l56.21 92.33 56.74-92.33h89.76l-94.36 141.9 98.79 148.1h-90.03l-60.9-99.32-61.17 99.32h-89.76l98.35-148.1zm300.09 2.57c0 28.68 4.69 50.37 14.07 65.06 9.47 14.7 24.79 22.04 46.03 22.04 21.07 0 36.21-7.26 45.5-21.87 9.21-14.61 13.81-36.38 13.81-65.24 0-28.68-4.61-50.19-13.99-64.53-9.3-14.34-24.61-21.51-45.85-21.51-21.07 0-36.3 7.17-45.59 21.42-9.38 14.25-13.99 35.76-13.99 64.62zm200.33.18c0 47.18-12.39 84.09-37.27 110.74-24.87 26.64-59.57 39.92-104.01 39.92-27.8 0-52.32-6.11-73.65-18.32-21.24-12.13-37.53-29.66-48.95-52.49-11.42-22.84-17.09-49.49-17.09-79.85 0-47.45 12.3-84.27 37-110.56 24.79-26.29 59.49-39.39 104.28-39.39 27.79 0 52.32 6.02 73.65 18.15 21.24 12.13 37.53 29.48 48.95 52.14 11.42 22.66 17.09 49.22 17.09 79.67zm246.98 87.46v-172.62h-59.4c-4.25 32.13-10.18 62.67-17.7 91.53-7.53 28.86-17.97 55.86-31.25 81.09H4001zm121.63 161.99h-71.08v-104.1h-194.93v104.1h-71.08v-161.99h24.34c16.64-25.76 30.54-58.25 41.78-97.55 11.24-39.21 19.12-84.09 23.55-134.55h204.93v232.1h42.49v161.99zm126.05-394.1v114.64c0 12.13-1.95 41.69-5.93 88.7l133.67-203.33h95.16v290h-76.48v-115.7c0-20.54 1.77-49.66 5.22-87.11l-133.23 202.8h-94.9v-290h76.48zm671.26 290h-73.92v-228.56l-4.16 16.11c-9.3 36.47-17.7 64.09-25.14 82.77l-51.25 129.68h-56.3l-52.05-130.75c-7.44-19.03-15.4-45.77-23.9-80.11l-4.87-17.7v228.56h-73.65v-290h108.88l49.75 123.75c5.22 13.28 10 28.59 14.43 45.85 4.34 17.35 7.35 32.13 8.94 44.35 5.67-25.94 10.09-44.53 13.28-55.86 3.28-11.33 6.73-21.78 10.53-31.25 3.81-9.56 20.98-51.78 51.61-126.85h107.82v290zm146.15-145.53c0 28.68 4.69 50.37 14.07 65.06 9.47 14.7 24.79 22.04 46.03 22.04 21.07 0 36.21-7.26 45.5-21.87 9.21-14.61 13.81-36.38 13.81-65.24 0-28.68-4.61-50.19-13.99-64.53-9.3-14.34-24.61-21.51-45.85-21.51-21.07 0-36.3 7.17-45.59 21.42-9.38 14.25-13.99 35.76-13.99 64.62zm200.33.18c0 47.18-12.39 84.09-37.27 110.74-24.87 26.64-59.57 39.92-104.01 39.92-27.8 0-52.32-6.11-73.65-18.32-21.24-12.13-37.53-29.66-48.95-52.49-11.42-22.84-17.09-49.49-17.09-79.85 0-47.45 12.3-84.27 37-110.56 24.79-26.29 59.49-39.39 104.28-39.39 27.79 0 52.32 6.02 73.65 18.15 21.24 12.13 37.53 29.48 48.95 52.14 11.42 22.66 17.09 49.22 17.09 79.67zm161.99-144.65h86.66l54.71 163.15c4.69 14.16 7.88 30.89 9.65 50.28h1.5c1.95-17.79 5.67-34.61 11.15-50.28l53.73-163.15h84.81l-122.69 327c-11.24 30.28-27.26 52.94-48.16 67.9-20.8 15.05-45.15 22.57-73.03 22.57-13.63 0-27-1.51-40.19-4.43v-62.67c9.56 2.21 19.92 3.36 31.16 3.36 13.99 0 26.2-4.25 36.65-12.83 10.53-8.59 18.68-21.51 24.52-38.77l4.69-14.25-115.17-287.87zm326.03 116.32c0-66.57 12.66-117.11 37.98-151.64 25.32-34.43 64.89-56.3 118.62-65.5 26.11-4.43 65.06-10.18 116.94-17.09l9.03 69.05c-22.4 2.57-62.23 8.14-119.5 16.55-21.78 3.45-37.98 8.68-48.69 15.58-10.8 6.91-18.77 16.73-23.99 29.48-5.31 12.83-8.59 29.83-9.74 51.08h3.89c9.12-14.25 21.24-25.14 36.3-32.75 15.05-7.61 31.16-11.42 48.42-11.42 35.85 0 63.65 10.98 83.56 32.84 19.83 21.87 29.74 53.2 29.74 94.1 0 47.09-12.57 83.65-37.71 109.68-25.14 26.02-59.84 39.04-104.1 39.04-44.26 0-78.78-15.85-103.57-47.62-24.79-31.69-37.18-75.51-37.18-131.37zm145.44 114.73c37.53 0 56.21-25.85 56.21-77.54 0-50.28-16.91-75.42-50.81-75.42-9.3 0-18.59 2.12-27.8 6.46-9.29 4.34-17.79 10-25.41 17-7.7 6.99-13.37 14.07-17 21.16 0 35.05 5.58 61.88 16.82 80.47 11.24 18.59 27.26 27.89 47.98 27.89zm361.79 64.27c-34.08 0-60.81-12.39-80.2-37.09h-4.07c2.75 24.17 4.07 38.15 4.07 41.96v117.29h-79.05v-417.47h64.27l11.15 37.71h3.63c18.59-28.68 45.94-43.02 82.33-43.02 34.17 0 60.99 13.19 80.38 39.66 19.39 26.47 29.04 63.2 29.04 110.3 0 30.89-4.51 57.8-13.63 80.64-9.03 22.84-21.95 40.19-38.77 52.14-16.73 11.95-36.47 17.88-59.13 17.88zm-23.37-237.42c-19.47 0-33.82 6.02-42.76 17.97-9.03 12.04-13.72 31.87-14.07 59.58v8.5c0 31.16 4.69 53.38 13.9 66.92 9.29 13.45 23.9 20.18 44 20.18 35.5 0 53.2-29.21 53.2-87.64 0-28.5-4.34-49.84-13.1-64.09s-22.4-21.42-41.16-21.42zm384.36 232.1-15.32-39.39h-2.04c-13.37 16.82-27.09 28.51-41.16 34.97-14.07 6.46-32.4 9.74-55.06 9.74-27.88 0-49.75-7.97-65.77-23.9-16.02-15.93-23.99-38.6-23.99-67.98 0-30.81 10.8-53.56 32.31-68.16 21.51-14.61 54-22.75 97.37-24.26l50.28-1.59v-12.75c0-29.39-15.05-44.08-45.15-44.08-23.11 0-50.37 6.99-81.62 20.98l-26.2-53.29c33.37-17.44 70.37-26.11 111.01-26.11 38.86 0 68.69 8.5 89.41 25.4 20.8 16.91 31.16 42.67 31.16 77.28v193.16h-55.24zm-23.37-134.38-30.54 1.06c-23.02.71-40.19 4.78-51.43 12.48-11.24 7.61-16.82 19.21-16.82 34.79 0 22.31 12.83 33.46 38.42 33.46 18.32 0 32.93-5.31 43.91-15.85 10.98-10.53 16.47-24.61 16.47-42.05v-23.9zm399.77-155.62v59.49h-94.81v230.51h-79.14v-230.51h-95.07v-59.49h269.02zm133.14 112.07h55.86c44.61 0 77.63 7.08 99.14 21.24 21.42 14.16 32.13 35.67 32.13 64.35 0 61.52-42.76 92.33-128.18 92.33h-138.01v-290h79.05v112.07zm108 86.66c0-11.24-4.43-19.39-13.45-24.43-9.03-5.04-22.4-7.52-40.28-7.52h-54.26v68.52h55.33c35.14 0 52.67-12.22 52.67-36.56zm466.95-198.73h87.19l-114.81 139.07 124.9 150.93h-89.76l-118.44-147.03v147.03h-79.05v-290h79.05v140.84l110.92-140.84zm191.3 144.47c0 28.68 4.69 50.37 14.07 65.06 9.47 14.7 24.79 22.04 46.03 22.04 21.07 0 36.21-7.26 45.5-21.87 9.21-14.61 13.81-36.38 13.81-65.24 0-28.68-4.61-50.19-13.99-64.53-9.3-14.34-24.61-21.51-45.85-21.51-21.07 0-36.3 7.17-45.59 21.42-9.38 14.25-13.99 35.76-13.99 64.62zm200.33.18c0 47.18-12.39 84.09-37.27 110.74-24.87 26.64-59.57 39.92-104.01 39.92-27.8 0-52.32-6.11-73.65-18.32-21.24-12.13-37.53-29.66-48.95-52.49-11.42-22.84-17.09-49.49-17.09-79.85 0-47.45 12.3-84.27 37-110.56 24.79-26.29 59.49-39.39 104.28-39.39 27.79 0 52.32 6.02 73.65 18.15 21.24 12.13 37.53 29.48 48.95 52.14 11.42 22.66 17.09 49.22 17.09 79.67zm325.05 145.35h-79.05v-230.51h-72.85c-5.58 64.89-12.3 113.22-20.27 145.18-7.97 31.87-18.5 54.97-31.78 69.22-13.19 14.25-30.54 21.42-51.96 21.42-18.32 0-33.37-2.74-45.15-8.32v-63.29c8.5 3.45 16.91 5.22 25.41 5.22 9.83 0 18.15-7.08 24.79-21.25 6.64-14.25 12.57-37.89 17.88-70.99 5.31-33.2 9.83-78.7 13.63-136.68h219.36v290zm65.42-173.68c0-66.57 12.66-117.11 37.98-151.64 25.32-34.43 64.89-56.3 118.62-65.5 26.11-4.43 65.06-10.18 116.94-17.09l9.03 69.05c-22.4 2.57-62.23 8.14-119.5 16.55-21.78 3.45-37.98 8.68-48.69 15.58-10.8 6.91-18.77 16.73-23.99 29.48-5.31 12.83-8.59 29.83-9.74 51.08h3.89c9.12-14.25 21.24-25.14 36.3-32.75 15.05-7.61 31.16-11.42 48.42-11.42 35.85 0 63.65 10.98 83.56 32.84 19.83 21.87 29.74 53.2 29.74 94.1 0 47.09-12.57 83.65-37.71 109.68-25.14 26.02-59.84 39.04-104.1 39.04-44.26 0-78.78-15.85-103.57-47.62-24.79-31.69-37.18-75.51-37.18-131.37zm145.44 114.73c37.53 0 56.21-25.85 56.21-77.54 0-50.28-16.91-75.42-50.81-75.42-9.3 0-18.59 2.12-27.8 6.46-9.29 4.34-17.79 10-25.41 17-7.7 6.99-13.37 14.07-17 21.16 0 35.05 5.58 61.88 16.82 80.47 11.24 18.59 27.26 27.89 47.98 27.89zm281.59-118.97h38.15c44.26 0 77.02 7.08 98.26 21.24 21.24 14.16 31.87 35.67 31.87 64.35 0 30.63-10.62 53.64-31.87 69.14-21.24 15.49-53.11 23.19-95.43 23.19h-120.04v-290h79.05v112.07zm89.23 86.66c0-11.24-4.52-19.39-13.55-24.43-8.94-5.04-22.31-7.52-40.19-7.52h-35.5v68.52h36.56c35.05 0 52.67-12.22 52.67-36.56zm200.15 91.27h-79.05v-290h79.05v290zM2192.76 3162.84c-90.2 0-135.26-49.57-135.26-148.63 0-49.31 12.22-86.93 36.74-112.95 24.61-26.03 59.75-39.04 105.52-39.04 33.55 0 63.65 6.55 90.29 19.65l-23.37 61.17c-12.48-4.96-23.99-9.12-34.7-12.3-10.71-3.19-21.42-4.78-32.13-4.78-41.16 0-61.7 29.21-61.7 87.63 0 56.66 20.54 84.98 61.7 84.98 15.14 0 29.21-2.04 42.22-6.11 12.92-4.07 25.94-10.45 38.86-19.03v67.81c-12.75 8.15-25.67 13.81-38.77 16.91-13.01 3.1-29.48 4.69-49.39 4.69zm369.93-295.31v114.64c0 12.13-1.95 41.69-5.93 88.7l133.67-203.33h95.16v290h-76.48v-115.7c0-20.54 1.77-49.66 5.22-87.11l-133.23 202.8h-94.9v-290h76.48zm385.07 0v111.54h110.48v-111.54h79.05v290h-79.05v-119.5h-110.48v119.5h-79.05v-290h79.05zm512.37 0v59.49h-94.81v230.51h-79.14v-230.51h-95.07v-59.49h269.02zm169.08 50.99c-16.82 0-29.92 5.31-39.48 15.93-9.47 10.62-14.96 25.67-16.38 45.15h111.1c-.36-19.47-5.4-34.53-15.32-45.15-9.83-10.62-23.19-15.93-39.92-15.93zm11.15 244.32c-46.74 0-83.21-12.92-109.5-38.68-26.29-25.76-39.39-62.23-39.39-109.41 0-48.6 12.13-86.13 36.38-112.69 24.34-26.56 57.89-39.83 100.82-39.83 40.99 0 72.85 11.68 95.69 34.97 22.84 23.37 34.26 55.5 34.26 96.67v38.33h-187.05c.89 22.49 7.53 40.1 19.92 52.76 12.48 12.66 30.01 18.94 52.49 18.94 17.44 0 33.99-1.86 49.57-5.49 15.49-3.63 31.78-9.38 48.77-17.35v61.26c-13.9 6.91-28.68 12.13-44.44 15.49-15.67 3.36-34.88 5.05-57.54 5.05zm341.78 0c-34.08 0-60.81-12.39-80.2-37.09h-4.07c2.75 24.17 4.07 38.15 4.07 41.96V3285h-79.05v-417.47h64.27l11.15 37.71h3.63c18.59-28.68 45.94-43.02 82.33-43.02 34.17 0 60.99 13.19 80.38 39.66 19.39 26.47 29.04 63.2 29.04 110.3 0 30.89-4.51 57.8-13.63 80.64-9.03 22.84-21.95 40.19-38.77 52.14-16.73 11.95-36.47 17.88-59.13 17.88zm-23.37-237.42c-19.47 0-33.82 6.02-42.76 17.97-9.03 12.04-13.72 31.87-14.07 59.58v8.5c0 31.16 4.69 53.38 13.9 66.92 9.29 13.45 23.9 20.18 44 20.18 35.5 0 53.2-29.21 53.2-87.64 0-28.5-4.34-49.84-13.1-64.09s-22.4-21.42-41.16-21.42zm384.36 232.1-15.32-39.39h-2.04c-13.37 16.82-27.09 28.51-41.16 34.97-14.07 6.46-32.4 9.74-55.06 9.74-27.88 0-49.75-7.97-65.77-23.9-16.02-15.93-23.99-38.6-23.99-67.98 0-30.81 10.8-53.56 32.31-68.16 21.51-14.61 54-22.75 97.37-24.26l50.28-1.59v-12.75c0-29.39-15.05-44.08-45.15-44.08-23.11 0-50.37 6.99-81.62 20.98l-26.2-53.29c33.37-17.44 70.37-26.11 111.01-26.11 38.86 0 68.69 8.5 89.41 25.4 20.8 16.91 31.16 42.67 31.16 77.28v193.16h-55.24zm-23.37-134.38-30.54 1.06c-23.02.71-40.19 4.78-51.43 12.48-11.24 7.61-16.82 19.21-16.82 34.79 0 22.31 12.83 33.46 38.42 33.46 18.32 0 32.93-5.31 43.91-15.85 10.98-10.53 16.47-24.61 16.47-42.05v-23.9zm350.02-155.62h87.19l-114.81 139.07 124.9 150.93h-89.76l-118.44-147.03v147.03h-79.05v-290h79.05v140.84l110.92-140.84zm378.61 0v59.49h-94.81v230.51h-79.14v-230.51h-95.07v-59.49h269.02zm130.57 0v114.64c0 12.13-1.95 41.69-5.93 88.7l133.67-203.33h95.16v290h-76.48v-115.7c0-20.54 1.77-49.66 5.22-87.11l-133.23 202.8h-94.9v-290h76.48zm573.53 76.04c0 15.49-4.87 28.77-14.6 39.75-9.83 11.06-24.17 18.06-43.2 21.16v2.12c20.54 2.39 36.91 9.47 48.86 21.16 12.04 11.6 18.06 26.03 18.06 43.11 0 28.24-11.07 49.66-33.2 64.45-22.13 14.78-53.73 22.22-94.9 22.22h-148.54v-290h148.54c39.75 0 69.49 6.46 89.32 19.3 19.83 12.92 29.65 31.78 29.65 56.74zm-72.85 123.13c0-11.42-4.43-19.65-13.19-24.79-8.85-5.05-22.04-7.61-39.66-7.61h-62.76v68.52h64.27c16.82 0 29.57-3.19 38.24-9.47 8.76-6.28 13.1-15.22 13.1-26.64zm-7.26-116.94c0-17.62-13.99-26.47-41.96-26.47h-66.39v57.36h57.27c16.82 0 29.48-2.39 38.15-7.26 8.58-4.87 12.92-12.75 12.92-23.64zm231.13-82.24v111.54h110.48v-111.54h79.05v290h-79.05v-119.5h-110.48v119.5h-79.05v-290h79.05zm335.68 144.47c0 28.68 4.69 50.37 14.07 65.06 9.47 14.7 24.79 22.04 46.03 22.04 21.07 0 36.21-7.26 45.5-21.87 9.21-14.61 13.81-36.38 13.81-65.24 0-28.68-4.61-50.19-13.99-64.53-9.3-14.34-24.61-21.51-45.85-21.51-21.07 0-36.3 7.17-45.59 21.42-9.38 14.25-13.99 35.76-13.99 64.62zm200.33.18c0 47.18-12.39 84.09-37.27 110.74-24.87 26.64-59.57 39.92-104.01 39.92-27.8 0-52.32-6.11-73.65-18.32-21.24-12.13-37.53-29.66-48.95-52.49-11.42-22.84-17.09-49.49-17.09-79.85 0-47.45 12.3-84.27 37-110.56 24.79-26.29 59.49-39.39 104.28-39.39 27.79 0 52.32 6.02 73.65 18.15 21.24 12.13 37.53 29.48 48.95 52.14 11.42 22.66 17.09 49.22 17.09 79.67zm141.99-144.65v114.64c0 12.13-1.95 41.69-5.93 88.7l133.67-203.33h95.16v290h-76.48v-115.7c0-20.54 1.77-49.66 5.22-87.11l-133.23 202.8h-94.9v-290h76.48zm199.53-124.82c-3.28 32.4-15.49 55.95-36.56 70.73-21.07 14.78-51.52 22.22-91.27 22.22-40.99 0-71.26-7.08-90.91-21.33-19.65-14.16-30.63-38.07-33.11-71.62h70.82c1.24 17.88 5.67 30.36 13.37 37.53 7.7 7.17 21.51 10.8 41.34 10.8 17.53 0 30.54-3.89 39.04-11.86 8.59-7.88 13.81-20.01 15.76-36.47h71.52zm508.03 124.82v290h-79.32V2927h-105.16v230.51h-79.05v-290h263.53zm266.81 290-15.32-39.39h-2.04c-13.37 16.82-27.09 28.51-41.16 34.97-14.07 6.46-32.4 9.74-55.06 9.74-27.88 0-49.75-7.97-65.77-23.9-16.02-15.93-23.99-38.6-23.99-67.98 0-30.81 10.8-53.56 32.31-68.16 21.51-14.61 54-22.75 97.37-24.26l50.28-1.59v-12.75c0-29.39-15.05-44.08-45.15-44.08-23.11 0-50.37 6.99-81.62 20.98l-26.2-53.29c33.37-17.44 70.37-26.11 111.01-26.11 38.86 0 68.69 8.5 89.41 25.4 20.8 16.91 31.16 42.67 31.16 77.28v193.16h-55.24zm-23.37-134.38-30.54 1.06c-23.02.71-40.19 4.78-51.43 12.48-11.24 7.61-16.82 19.21-16.82 34.79 0 22.31 12.83 33.46 38.42 33.46 18.32 0 32.93-5.31 43.91-15.85 10.98-10.53 16.47-24.61 16.47-42.05v-23.9zm239.1-155.62v111.54h110.48v-111.54h79.05v290h-79.05v-119.5h-110.48v119.5h-79.05v-290h79.05zm392.77 50.99c-16.82 0-29.92 5.31-39.48 15.93-9.47 10.62-14.96 25.67-16.38 45.15h111.1c-.36-19.47-5.4-34.53-15.32-45.15-9.83-10.62-23.19-15.93-39.92-15.93zm11.15 244.32c-46.74 0-83.21-12.92-109.5-38.68-26.29-25.76-39.39-62.23-39.39-109.41 0-48.6 12.13-86.13 36.38-112.69 24.34-26.56 57.89-39.83 100.82-39.83 40.99 0 72.85 11.68 95.69 34.97 22.84 23.37 34.26 55.5 34.26 96.67v38.33h-187.05c.89 22.49 7.53 40.1 19.92 52.76 12.48 12.66 30.01 18.94 52.49 18.94 17.44 0 33.99-1.86 49.57-5.49 15.49-3.63 31.78-9.38 48.77-17.35v61.26c-13.9 6.91-28.68 12.13-44.44 15.49-15.67 3.36-34.88 5.05-57.54 5.05zm442.08-5.31h-79.05V2927h-72.85c-5.58 64.89-12.3 113.22-20.27 145.18-7.97 31.87-18.5 54.97-31.78 69.22-13.19 14.25-30.54 21.42-51.96 21.42-18.32 0-33.37-2.74-45.15-8.32v-63.29c8.5 3.45 16.91 5.22 25.41 5.22 9.83 0 18.15-7.08 24.79-21.25 6.64-14.25 12.57-37.89 17.88-70.99 5.31-33.2 9.83-78.7 13.63-136.68h219.36v290zm159.52-290v114.64c0 12.13-1.95 41.69-5.93 88.7l133.67-203.33h95.16v290h-76.48v-115.7c0-20.54 1.77-49.66 5.22-87.11l-133.23 202.8h-94.9v-290h76.48z" class="fil1"/></g></g></svg>