<svg xmlns="http://www.w3.org/2000/svg" xml:space="preserve"
     style="shape-rendering:geometricPrecision;text-rendering:geometricPrecision;image-rendering:optimizeQuality;fill-rule:evenodd;clip-rule:evenodd"
     viewBox="0 0 5979.96 6227.84"><path d="M4628.63 2288.97 4198.1 1056.46c-21.12-94.28-42.22-188.56-41.52-287.05.7-98.49 23.2-201.21 78.08-275.08 54.88-73.87 142.1-118.88 220.19-142.1 78.09-23.21 147.03-24.62 210.34-14.07 63.32 10.56 121 33.06 161.8 59.09 40.8 26.04 64.73 55.58 89.35 94.28 24.63 38.7 49.96 86.55 75.29 134.4l574.05 1865.65c52.02 132.24 104.06 264.46 176.5 500.82 72.45 236.37 165.31 576.85 208.93 877.94 43.62 301.09 37.99 562.8-18.29 796.35-56.27 233.56-163.21 438.98-301.09 620.48-137.88 181.5-306.72 339.08-537.47 472.75-230.74 133.66-523.39 243.41-844.18 325.01-320.79 81.61-669.72 135.07-952.53 142.1-282.8 7.04-499.47-32.35-713.34-118.18-213.86-85.82-424.91-218.09-638.06-371.44-213.15-153.35-428.4-327.81-621.86-480.46-193.45-152.64-365.1-283.5-536.05-381.29-170.94-97.79-341.19-162.5-470.63-232.15S99.52 4499.29 49.58 4420.49c-49.95-78.79-61.2-161.79-37.99-242.7 23.22-80.9 80.9-159.7 162.5-230.05 81.61-70.34 187.14-132.25 297.58-161.79 110.45-29.55 225.83-26.73 332.05-1.41 106.23 25.33 203.32 73.16 291.24 147.02 87.94 73.87 166.73 173.77 242.7 258.18 75.98 84.42 149.14 153.36 202.61 191.35 53.47 37.99 87.23 45.03 107.64 37.29 20.42-7.73 27.47-30.23 34.53-52.73L838.25 1537.63c-19.7-113.97-39.41-227.94-33.08-320.8 6.34-92.87 38.69-164.62 90.75-218.09s123.81-88.65 196.27-103.42c72.46-14.77 145.63-9.14 211.75 13.37 66.13 22.51 125.22 61.91 170.25 116.08 45.03 54.18 75.99 123.12 91.47 157.59l15.48 34.48 447.42 1544.86c33.68 73.94 67.37 147.88 110.24 194.69 42.87 46.83 94.92 66.52 146.28 64.41 51.36-2.11 102.01-26.03 128.03-65.42 26.04-39.4 27.44-94.26 19.75-134.75-7.7-40.49-24.49-66.59-41.29-92.69L1749.99 769.43c-22.52-84.43-45.05-168.86-44.35-256.11.7-87.24 24.62-177.28 68.23-244.12 43.62-66.83 106.94-110.44 170.25-137.88 63.32-27.43 126.63-38.69 188.54-38.69s122.41 11.26 176.57 41.5c54.18 30.26 102.01 79.49 140 137.89 38 58.4 66.15 125.95 94.3 193.5l633.14 2017.6c19.61 47.21 39.23 94.42 68.03 132.79 28.8 38.38 66.79 67.93 104.78 79.19 37.99 11.26 75.97 4.22 103.41-13.37 27.44-17.58 44.33-45.72 49.96-89.34 5.63-43.62 0-102.71-11.22-150.23-11.21-47.52-28.02-83.47-44.82-119.42L2872.76 617.48c-19.71-87.25-39.42-174.49-38.02-250.48 1.41-75.98 23.92-140.7 62.61-197.69 38.69-56.98 93.57-106.22 156.87-135.77 63.32-29.55 135.07-39.4 212.46-30.26 77.39 9.15 160.4 37.28 227.94 86.53 67.55 49.26 119.61 119.62 171.68 189.98l658.46 2051.37c21.02 51.43 42.05 102.86 73.67 149.68 31.62 46.83 73.82 89.03 114.62 108.02 40.8 19 80.2 14.78 106.94-5.63 26.73-20.4 40.8-56.97 46.42-95.67 5.63-38.69 2.81-79.48-4.88-112.94-7.7-33.45-20.28-59.56-32.86-85.66z"
                                         style="fill:#a90028;"/></svg>