<svg width="606" height="325" viewBox="0 0 606 325" fill="none" xmlns="http://www.w3.org/2000/svg">
<g filter="url(#filter0_d_3_186)">
<path fill-rule="evenodd" clip-rule="evenodd" d="M432.524 259.927C424.067 224.317 415.61 188.707 407.272 166.198C398.934 143.688 390.715 134.28 383.21 128.087C375.706 121.894 368.917 118.916 361.055 116.832C353.194 114.748 344.26 113.557 336.16 113.855C328.06 114.152 320.794 115.939 313.707 119.333C306.62 122.727 299.711 127.729 292.266 134.101C284.822 140.473 276.841 148.214 268.622 153.692C260.403 159.171 251.946 162.387 244.144 162.565C236.342 162.744 229.195 159.886 221.333 153.931C213.472 147.976 204.896 138.924 196.558 133.684C188.22 128.444 180.12 127.015 172.794 127.61C165.469 128.206 158.917 130.826 152.128 136.185C145.338 141.545 138.31 149.643 130.092 161.91C121.873 174.177 112.463 190.612 104.005 207.286C95.5482 223.96 88.044 240.871 80.5397 257.783L432.524 259.927L432.524 259.927Z" fill="#4BA8AA"/>
<path fill-rule="evenodd" clip-rule="evenodd" d="M318.407 151.463L322.797 133.336L327.532 145.931L331.106 124.047L336.198 142.805L345.846 134.766L348.973 117.258L351.385 128.424L353.797 127.798L357.728 101.895L363.356 124.226L365.232 123.958L368.716 107.254L372.647 119.849C372.647 119.849 379.883 117.169 385.868 115.472C391.854 113.775 394.087 113.06 394.087 113.06L397.036 90.0148L400.162 107.522L402.842 106.629L405.88 88.7641L409.275 105.2L410.793 104.306L415.707 76.8843L420.174 93.409L418.566 94.9274L420.71 96.8033L425.891 116.276L431.251 90.5507L435.986 109.487L440.81 79.2067L444.741 98.8577L442.329 101.716L445.098 102.163L450.101 121.367H451.799L457.427 84.6554L466.003 127.262L467.879 127.173L475.651 91.4439H476.724L490.839 151.022L542.654 241.417V255.708H184.594V243.561C199.126 234.092 213.658 224.624 223.396 218.103C233.133 211.583 238.077 208.01 245.015 202.978C251.953 197.946 260.887 191.455 271.369 183.982C281.851 176.509 293.882 168.053 301.98 162.469C310.077 156.886 314.242 154.174 318.407 151.463L318.407 151.463Z" fill="#34847F"/>
<path fill-rule="evenodd" clip-rule="evenodd" d="M49.9999 265H556V237.488H477.741L464.877 179.428L450.226 232.307L436.468 174.426L431.823 186.038L435.217 191.665L430.215 192.023L420.388 224.179L411.052 190.147L406.764 190.504L409.801 186.485L409.086 180.5L405.87 180.321L408.103 177.552L404.709 164.332L393.988 193.719L401.403 198.632L392.737 198.007L384.429 223.643L376.836 200.151L365.4 232.843L359.057 216.14L353.697 234.987H345.478L340.833 221.499L334.758 234.897H195.304L191.731 219.534L187.621 235.88H185.298L183.601 228.645L180.653 236.058H122.853C120.5 236.297 118.148 236.535 115.497 236.922C112.847 237.309 109.899 237.845 104.911 238.946C99.9231 240.048 92.8953 241.715 86.4333 243.919C79.9714 246.122 74.0752 248.861 68.0971 252.464C62.1192 256.067 56.0595 260.533 49.9998 264.999L49.9999 265Z" fill="#246370"/>
<path d="M335.188 244.205H181.529V247.778H335.188V244.205Z" fill="#434242"/>
<path fill-rule="evenodd" clip-rule="evenodd" d="M244.232 65.7378H272.462V40.0005H244.232V65.7378ZM247.23 43.1271H269.475V54.8405H247.23V43.1271Z" fill="#434242"/>
<path fill-rule="evenodd" clip-rule="evenodd" d="M228.76 213.658H224.84L223.03 229.249L225.869 238.217L228.76 213.658H228.76ZM287.957 213.658H291.877H294.423H298.622L293.687 229.249L290.848 238.217L287.957 213.658ZM255.857 244.205H260.86V157.838H278.84L289.007 244.205H291.607C295.103 233.16 298.598 222.114 302.096 211.069L294.482 148.301L294.482 148.301C291.699 126.124 288.917 103.946 286.135 81.769L277.81 70.5724L277.801 70.5002L277.76 70.505L272.607 63.5744V63.303H272.405L271.266 61.7706L269.238 63.274L269.876 64.1328L260.86 71.5923V65.738H255.857V71.5923L246.841 64.1328L247.479 63.274L245.451 61.7706L244.312 63.303H244.11V63.5744L238.957 70.505L238.916 70.5002L238.907 70.5724L230.582 81.769C227.574 105.748 224.567 129.727 221.557 153.706H220.941L214.419 168.623L219.676 168.686L218.972 174.289H218.481L211.96 189.206L217.09 189.267L216.234 196.084H215.444L208.922 211.001L214.621 211.069C218.119 222.114 221.614 233.16 225.11 244.205H227.71L237.878 157.838H255.857V244.205L255.857 244.205ZM255.857 76.3888V82.056H248.921L255.857 76.3888ZM255.857 84.588V136.45L249.686 142.973H239.627L246.5 84.588H255.857ZM255.857 145.505V155.307H251.331V145.505H255.857ZM260.86 155.307V145.505H265.386V155.307H260.86ZM260.86 136.45V84.5881H270.216L277.09 142.973H274.689H269.97H267.031L260.86 136.45ZM260.86 82.0561V76.3889L267.796 82.0561H260.86ZM286.233 186.505L299.527 208.004C298.594 200.908 297.636 193.811 296.778 186.721L296.65 186.795L296.483 186.505H292.514H291.27H288.724H286.233ZM298.491 211.126L285.111 189.487L287.659 211.126H287.766H291.583H294.129H296.625H297.303H298.491H298.491ZM282.85 157.839L295.993 180.612C295.495 176.646 294.997 172.681 294.499 168.716H294.499L294.067 165.271L293.542 161.095L293.166 157.838H285.396H282.85L282.85 157.839ZM295.068 184.053L281.755 160.987L284.462 183.973L295.068 184.053ZM277.871 115.94L290.793 139.044C290.579 137.387 290.358 135.685 290.139 133.983L287.874 115.94H283.077H280.531H277.871L277.871 115.94ZM290.099 142.973L276.845 119.275L279.635 142.973H279.688H290.099ZM279.994 145.505H291.629C292.055 148.81 292.379 152.05 292.803 155.307H285.102H281.176H281.086L279.933 145.505H279.993H279.994ZM287.556 113.408H282.783H280.237H276.214H276.154L272.85 85.3277L272.806 84.956L272.763 84.5881H276.891H279.437H283.938H284.184C284.9 90.7723 286.63 104.017 287.843 113.408H287.556H287.556ZM283.202 82.0561H279.143L278.392 75.5862L283.202 82.0561ZM275.375 71.5286L276.597 82.0561H272.607V67.8054L275.375 71.5287V71.5286ZM278.541 155.307H267.918V151.311H278.071L278.541 155.307ZM277.773 148.779H267.918V145.505H269.97H274.689H277.388L277.773 148.779H277.773ZM261.921 73.9967L270.074 67.2513V80.6579L261.921 73.9967ZM221.167 223.365L222.294 213.659H218.095L221.167 223.365H221.167ZM217.293 211.127H219.414L217.285 211.101L217.293 211.127ZM218.782 196.084H224.335L225.447 186.505H224.203L223.127 189.34L219.634 189.298L218.782 196.084H218.782ZM221.518 174.289H226.865L228.353 161.472L225.586 168.757L222.218 168.716L221.518 174.289ZM224.102 153.706H229.255L233.64 115.94H228.843L224.102 153.706ZM229.161 113.408H233.934L237.28 84.5881H232.779L229.161 113.408H229.161ZM233.514 82.0561H237.574L238.325 75.5862L233.514 82.0561ZM241.342 71.5286L240.119 82.0561H244.11V67.8054L241.342 71.5287V71.5286ZM243.954 84.5881H239.825L236.479 113.408H240.563L243.954 84.5881ZM240.265 115.94H236.185L231.615 155.307H235.63L240.264 115.94H240.265ZM238.175 155.307H248.799V151.311H238.646L238.175 155.307ZM238.944 148.779H248.799V145.505H239.329L238.944 148.779ZM235.332 157.839H231.321L228.286 183.973H232.255L235.332 157.839ZM231.957 186.505H227.993L225.134 211.126H229.058L231.957 186.505ZM225.165 183.973H225.741L225.994 181.791L225.165 183.973ZM220.092 211.127H222.588L223.687 201.664L220.092 211.127ZM254.796 73.9967L246.643 67.2513V80.6579L254.796 73.9967Z" fill="#434242"/>
<path d="M258.37 189.484H269.821V230.09H347.222V239.656H403.778V242.188H344.689V232.622H267.288V192.016H258.37V189.484Z" fill="#434242"/>
<path d="M356.877 246.006H347.222V254.528H362.639V257.06H344.689V243.474H356.877V246.006Z" fill="#434242"/>
<path fill-rule="evenodd" clip-rule="evenodd" d="M177.708 255.583H247.156V263.89H269.669V255.583H339.009V247.778H258.359H177.708V255.583Z" fill="#4B4A4A"/>
<path d="M308.06 223.56H299.953V244.205H308.06V223.56Z" fill="#ABACAB"/>
<path d="M320.054 223.56H311.946V244.205H320.054V223.56Z" fill="#ABACAB"/>
<path d="M332.047 223.56H323.94V244.205H332.047V223.56Z" fill="#ABACAB"/>
<path d="M388.831 251.293H353.118V260.136H388.831V251.293Z" fill="#ABACAB"/>
<path d="M431.243 234.88H401.561V248.479H431.243V234.88Z" fill="#ABACAB"/>
<path d="M427.155 229.453H405.58V234.88H427.155V229.453Z" fill="#C5C6C6"/>
<path fill-rule="evenodd" clip-rule="evenodd" d="M388.763 240.456V248.361H352.877C352.877 248.361 352.877 242.453 352.877 239.656C352.877 236.859 355.145 234.592 357.942 234.592C360.739 234.592 363.007 236.859 363.007 239.656H373.259C373.66 235.74 376.968 232.685 380.991 232.685C385.283 232.685 388.763 236.164 388.763 240.456L388.763 240.456ZM380.99 238.06C382.581 238.06 383.871 239.349 383.871 240.94C383.871 242.531 382.581 243.821 380.99 243.821C379.398 243.821 378.109 242.531 378.109 240.94C378.109 239.349 379.398 238.06 380.99 238.06Z" fill="#C5C6C6"/>
<path fill-rule="evenodd" clip-rule="evenodd" d="M171.808 257.152H139.379V231.427H143.131V225.063H145.878V231.427H149.094V225.063H151.841V231.427H171.808V257.152Z" fill="#C5C6C6"/>
<path fill-rule="evenodd" clip-rule="evenodd" d="M139.379 257.152H120.082V231.427H139.379V257.152Z" fill="#ABACAB"/>
<path d="M128.926 245.184C130.605 245.184 131.965 243.824 131.965 242.145C131.965 240.467 130.605 239.107 128.926 239.107C127.248 239.107 125.887 240.467 125.887 242.145C125.887 243.824 127.248 245.184 128.926 245.184Z" fill="#898989"/>
<path d="M167.653 236.182H146.213V239.13H167.653V236.182Z" fill="#434242"/>
<path fill-rule="evenodd" clip-rule="evenodd" d="M148.357 245.293V253.198H146.213V245.293V242.345H167.653V245.293V251.68H177.708V253.198H167.653H165.509V245.293H161.69V253.198H159.546V245.293H155.425V253.198H153.281V245.293H148.357Z" fill="#434242"/>
<path d="M272.371 82.3461L290.143 114.988L287.927 116.194L270.155 83.5527L272.371 82.3461Z" fill="#434242"/>
</g>
<defs>
<filter id="filter0_d_3_186" x="-0.000244141" y="0.000488281" width="606" height="324.999" filterUnits="userSpaceOnUse" color-interpolation-filters="sRGB">
<feFlood flood-opacity="0" result="BackgroundImageFix"/>
<feColorMatrix in="SourceAlpha" type="matrix" values="0 0 0 0 0 0 0 0 0 0 0 0 0 0 0 0 0 0 127 0" result="hardAlpha"/>
<feOffset dy="10"/>
<feGaussianBlur stdDeviation="25"/>
<feComposite in2="hardAlpha" operator="out"/>
<feColorMatrix type="matrix" values="0 0 0 0 0 0 0 0 0 0 0 0 0 0 0 0 0 0 0.7 0"/>
<feBlend mode="normal" in2="BackgroundImageFix" result="effect1_dropShadow_3_186"/>
<feBlend mode="normal" in="SourceGraphic" in2="effect1_dropShadow_3_186" result="shape"/>
</filter>
</defs>
</svg>
