<svg width="582" height="136" viewBox="0 0 582 136" fill="none" xmlns="http://www.w3.org/2000/svg">
<rect opacity="0.7" width="581" height="136" rx="20" fill="#383838"/>
<path d="M41.0825 61H35.8604V40.7178H29.1726V36.3716H47.7703V40.7178H41.0825V61ZM51.5605 36.3716H56.2605V48.2646L56.1931 51.4485L56.0247 55.0703H56.1257L67.4966 36.3716H73.7463V61H69.0969V49.1743C69.0969 47.5908 69.198 45.2437 69.4001 42.1328H69.2654L57.844 61H51.5605V36.3716ZM90.3899 61L84.4602 41.678H84.3086C84.522 45.6086 84.6287 48.231 84.6287 49.5449V61H79.9624V36.3716H87.0713L92.8999 55.2051H93.001L99.1833 36.3716H106.292V61H101.424V49.3428C101.424 48.7925 101.429 48.158 101.441 47.4392C101.463 46.7205 101.542 44.8113 101.677 41.7117H101.525L95.1741 61H90.3899ZM127.585 61L125.8 55.1377H116.821L115.035 61H109.409L118.101 36.2705H124.486L133.212 61H127.585ZM124.553 50.7578C122.902 45.4458 121.97 42.4417 121.757 41.7454C121.554 41.0491 121.408 40.4988 121.319 40.0945C120.948 41.532 119.887 45.0864 118.135 50.7578H124.553ZM156.509 61H151.304V50.3704H141.55V61H136.328V36.3716H141.55V46.0242H151.304V36.3716H156.509V61ZM185.096 48.6521C185.096 52.7288 184.086 55.8621 182.064 58.052C180.043 60.2419 177.145 61.3369 173.372 61.3369C169.598 61.3369 166.701 60.2419 164.679 58.052C162.658 55.8621 161.647 52.7175 161.647 48.6184C161.647 44.5193 162.658 41.3916 164.679 39.2354C166.712 37.0679 169.621 35.9841 173.406 35.9841C177.19 35.9841 180.082 37.0735 182.081 39.2522C184.091 41.4309 185.096 44.5642 185.096 48.6521ZM167.122 48.6521C167.122 51.4036 167.644 53.4756 168.689 54.8682C169.733 56.2607 171.294 56.957 173.372 56.957C177.538 56.957 179.622 54.1887 179.622 48.6521C179.622 43.1042 177.55 40.3303 173.406 40.3303C171.328 40.3303 169.761 41.0322 168.706 42.436C167.65 43.8286 167.122 45.9006 167.122 48.6521ZM188.129 53.8574V49.646H197.175V53.8574H188.129ZM220.809 61H215.604V40.7178H206.541V61H201.319V36.3716H220.809V61ZM241.209 61H227.025V36.3716H241.209V40.6504H232.248V46.0579H240.586V50.3367H232.248V56.6875H241.209V61ZM265.282 61H260.06V51.4822C258.33 52.0662 256.887 52.4648 255.73 52.6782C254.585 52.8916 253.49 52.9983 252.446 52.9983C250.098 52.9983 248.285 52.4368 247.004 51.3137C245.735 50.1794 245.101 48.5903 245.101 46.5464V36.3716H250.306V45.064C250.306 46.2544 250.581 47.1528 251.132 47.7593C251.682 48.3545 252.614 48.6521 253.928 48.6521C254.849 48.6521 255.764 48.5623 256.674 48.3826C257.595 48.1917 258.723 47.866 260.06 47.4055V36.3716H265.282V61ZM293.852 48.6521C293.852 52.7288 292.842 55.8621 290.82 58.052C288.799 60.2419 285.901 61.3369 282.128 61.3369C278.354 61.3369 275.457 60.2419 273.435 58.052C271.414 55.8621 270.403 52.7175 270.403 48.6184C270.403 44.5193 271.414 41.3916 273.435 39.2354C275.468 37.0679 278.377 35.9841 282.161 35.9841C285.946 35.9841 288.838 37.0735 290.837 39.2522C292.847 41.4309 293.852 44.5642 293.852 48.6521ZM275.878 48.6521C275.878 51.4036 276.4 53.4756 277.445 54.8682C278.489 56.2607 280.05 56.957 282.128 56.957C286.294 56.957 288.377 54.1887 288.377 48.6521C288.377 43.1042 286.305 40.3303 282.161 40.3303C280.084 40.3303 278.517 41.0322 277.461 42.436C276.406 43.8286 275.878 45.9006 275.878 48.6521ZM304.179 47.9614H305.897C307.503 47.9614 308.705 47.647 309.502 47.0181C310.299 46.3779 310.698 45.4514 310.698 44.2385C310.698 43.0144 310.361 42.1104 309.687 41.5264C309.025 40.9424 307.98 40.6504 306.554 40.6504H304.179V47.9614ZM315.971 44.0532C315.971 46.7036 315.14 48.7307 313.478 50.1345C311.827 51.5383 309.474 52.2402 306.419 52.2402H304.179V61H298.957V36.3716H306.823C309.811 36.3716 312.079 37.0173 313.629 38.3088C315.19 39.5891 315.971 41.5039 315.971 44.0532ZM333.979 61L332.193 55.1377H323.214L321.429 61H315.802L324.495 36.2705H330.879L339.605 61H333.979ZM330.947 50.7578C329.296 45.4458 328.364 42.4417 328.15 41.7454C327.948 41.0491 327.802 40.4988 327.712 40.0945C327.342 41.532 326.28 45.0864 324.528 50.7578H330.947ZM349.612 53.8574V49.646H358.658V53.8574H349.612ZM382.191 61L376.261 41.678H376.11C376.323 45.6086 376.43 48.231 376.43 49.5449V61H371.764V36.3716H378.873L384.701 55.2051H384.802L390.985 36.3716H398.094V61H393.225V49.3428C393.225 48.7925 393.231 48.158 393.242 47.4392C393.264 46.7205 393.343 44.8113 393.478 41.7117H393.326L386.975 61H382.191ZM404.31 36.3716H409.01V48.2646L408.942 51.4485L408.774 55.0703H408.875L420.246 36.3716H426.495V61H421.846V49.1743C421.846 47.5908 421.947 45.2437 422.149 42.1328H422.014L410.593 61H404.31V36.3716ZM437.934 47.9614H439.652C441.258 47.9614 442.459 47.647 443.257 47.0181C444.054 46.3779 444.453 45.4514 444.453 44.2385C444.453 43.0144 444.116 42.1104 443.442 41.5264C442.78 40.9424 441.735 40.6504 440.309 40.6504H437.934V47.9614ZM449.726 44.0532C449.726 46.7036 448.895 48.7307 447.232 50.1345C445.582 51.5383 443.229 52.2402 440.174 52.2402H437.934V61H432.711V36.3716H440.578C443.566 36.3716 445.834 37.0173 447.384 38.3088C448.945 39.5891 449.726 41.5039 449.726 44.0532ZM476.729 48.6521C476.729 52.7288 475.719 55.8621 473.697 58.052C471.676 60.2419 468.778 61.3369 465.005 61.3369C461.231 61.3369 458.334 60.2419 456.312 58.052C454.291 55.8621 453.28 52.7175 453.28 48.6184C453.28 44.5193 454.291 41.3916 456.312 39.2354C458.345 37.0679 461.254 35.9841 465.038 35.9841C468.823 35.9841 471.715 37.0735 473.714 39.2522C475.724 41.4309 476.729 44.5642 476.729 48.6521ZM458.755 48.6521C458.755 51.4036 459.277 53.4756 460.322 54.8682C461.366 56.2607 462.927 56.957 465.005 56.957C469.171 56.957 471.254 54.1887 471.254 48.6521C471.254 43.1042 469.182 40.3303 465.038 40.3303C462.961 40.3303 461.394 41.0322 460.338 42.436C459.283 43.8286 458.755 45.9006 458.755 48.6521ZM481.833 36.3716H489.498C492.991 36.3716 495.523 36.8713 497.096 37.8708C498.679 38.8591 499.471 40.437 499.471 42.6045C499.471 44.0757 499.123 45.283 498.427 46.2263C497.741 47.1697 496.826 47.7368 495.681 47.9277V48.0962C497.242 48.4443 498.365 49.0957 499.05 50.0503C499.746 51.0049 500.094 52.2739 500.094 53.8574C500.094 56.1035 499.28 57.8555 497.652 59.1133C496.034 60.3711 493.833 61 491.048 61H481.833V36.3716ZM487.056 46.1252H490.088C491.503 46.1252 492.525 45.9062 493.154 45.4683C493.794 45.0303 494.114 44.3059 494.114 43.2952C494.114 42.3518 493.766 41.678 493.07 41.2737C492.385 40.8582 491.295 40.6504 489.802 40.6504H487.056V46.1252ZM487.056 50.2693V56.6875H490.458C491.896 56.6875 492.957 56.4124 493.642 55.8621C494.327 55.3118 494.67 54.4695 494.67 53.3352C494.67 51.2913 493.21 50.2693 490.29 50.2693H487.056ZM521.859 53.3015C521.859 55.8621 521.005 57.7881 519.298 59.0796C517.603 60.3599 515.087 61 511.751 61H505.013V36.3716H510.235V45.822H511.92C515.076 45.822 517.518 46.479 519.248 47.793C520.989 49.0957 521.859 50.9319 521.859 53.3015ZM510.235 56.7212H511.6C513.318 56.7212 514.576 56.4404 515.373 55.8789C516.171 55.3062 516.569 54.447 516.569 53.3015C516.569 52.156 516.182 51.3362 515.407 50.842C514.643 50.3479 513.296 50.1008 511.364 50.1008H510.235V56.7212ZM530.063 61H524.857V36.3716H530.063V61ZM550.463 61H536.279V36.3716H550.463V40.6504H541.501V46.0579H549.84V50.3367H541.501V56.6875H550.463V61Z" fill="white"/>
<path d="M179.7 89.9614H181.418C183.024 89.9614 184.226 89.647 185.023 89.0181C185.821 88.3779 186.219 87.4514 186.219 86.2385C186.219 85.0144 185.883 84.1104 185.209 83.5264C184.546 82.9424 183.502 82.6504 182.075 82.6504H179.7V89.9614ZM191.492 86.0532C191.492 88.7036 190.661 90.7307 188.999 92.1345C187.348 93.5383 184.995 94.2402 181.941 94.2402H179.7V103H174.478V78.3716H182.345C185.332 78.3716 187.601 79.0173 189.151 80.3088C190.712 81.5891 191.492 83.5039 191.492 86.0532ZM212.987 95.3015C212.987 97.8621 212.134 99.7881 210.427 101.08C208.731 102.36 206.215 103 202.88 103H196.142V78.3716H201.364V87.822H203.048C206.204 87.822 208.647 88.479 210.376 89.793C212.117 91.0957 212.987 92.9319 212.987 95.3015ZM201.364 98.7212H202.728C204.447 98.7212 205.704 98.4404 206.502 97.8789C207.299 97.3062 207.698 96.447 207.698 95.3015C207.698 94.156 207.31 93.3362 206.535 92.842C205.772 92.3479 204.424 92.1008 202.492 92.1008H201.364V98.7212ZM221.191 103H215.986V78.3716H221.191V103ZM247.588 103H242.383V92.3704H232.629V103H227.407V78.3716H232.629V88.0242H242.383V78.3716H247.588V103ZM273.901 103H267.972L259.043 90.5173V103H253.821V78.3716H259.043V90.2983L267.871 78.3716H273.43L264.451 90.1973L273.901 103ZM277.001 78.3716H281.701V90.2646L281.634 93.4485L281.465 97.0703H281.566L292.937 78.3716H299.187V103H294.537V91.1743C294.537 89.5908 294.638 87.2437 294.841 84.1328H294.706L283.284 103H277.001V78.3716ZM312.286 96.0149C312.286 93.8152 312.606 91.7566 313.245 89.8391C313.892 87.9216 314.822 86.2407 316.034 84.7964H318.051C316.856 86.3984 315.955 88.1582 315.349 90.0757C314.751 91.9932 314.453 93.9646 314.453 95.99C314.453 97.9822 314.76 99.9287 315.374 101.83C315.988 103.73 316.872 105.465 318.026 107.034H316.034C314.814 105.623 313.884 103.975 313.245 102.091C312.606 100.207 312.286 98.1814 312.286 96.0149ZM333.428 103H331.025L326.132 94.9939L321.151 103H318.91L324.961 93.4873L319.321 84.7964H321.662L326.182 92.0056L330.739 84.7964H332.992L327.352 93.4126L333.428 103ZM348.146 103H345.742L340.849 94.9939L335.869 103H333.627L339.679 93.4873L334.038 84.7964H336.379L340.899 92.0056L345.456 84.7964H347.71L342.069 93.4126L348.146 103ZM350.748 103V84.7964H352.865V103H350.748ZM375.252 92.7776C375.252 93.6658 374.994 94.3423 374.48 94.8071C373.973 95.2637 373.26 95.5708 372.338 95.7285V95.8406C373.5 95.9983 374.347 96.3386 374.878 96.8616C375.418 97.3845 375.688 98.1067 375.688 99.0281C375.688 100.298 375.219 101.278 374.281 101.967C373.351 102.656 371.99 103 370.197 103H364.183V89.3535H370.172C373.558 89.3535 375.252 90.4949 375.252 92.7776ZM373.621 98.8911C373.621 98.1523 373.338 97.6169 372.774 97.2849C372.218 96.9446 371.292 96.7744 369.997 96.7744H366.25V101.269H370.047C372.429 101.269 373.621 100.477 373.621 98.8911ZM373.235 92.9768C373.235 92.3127 372.977 91.8438 372.463 91.5698C371.956 91.2876 371.184 91.1465 370.147 91.1465H366.25V94.9939H369.748C371.027 94.9939 371.927 94.8362 372.45 94.5208C372.973 94.2053 373.235 93.6907 373.235 92.9768ZM384.466 103.249C382.448 103.249 380.855 102.635 379.684 101.406C378.522 100.178 377.941 98.4719 377.941 96.2888C377.941 94.0891 378.481 92.3418 379.56 91.0469C380.647 89.752 382.104 89.1045 383.93 89.1045C385.64 89.1045 386.993 89.6689 387.989 90.7979C388.985 91.9185 389.483 93.4001 389.483 95.2429V96.5503H380.083C380.124 98.1523 380.527 99.3684 381.291 100.198C382.062 101.029 383.146 101.444 384.54 101.444C386.01 101.444 387.462 101.136 388.898 100.522V102.365C388.168 102.68 387.475 102.905 386.819 103.037C386.171 103.178 385.387 103.249 384.466 103.249ZM383.905 90.8352C382.81 90.8352 381.934 91.1921 381.278 91.906C380.631 92.6199 380.249 93.6077 380.133 94.8694H387.267C387.267 93.5662 386.977 92.5701 386.396 91.8811C385.814 91.1838 384.984 90.8352 383.905 90.8352ZM400.976 89.3535H403.242L397.353 95.9402L403.728 103H401.312L395.086 96.0896V103H393.02V89.3535H395.086V95.99L400.976 89.3535ZM410.601 96.0149C410.601 98.198 410.277 100.232 409.629 102.116C408.99 104 408.065 105.64 406.853 107.034H404.861C406.014 105.474 406.898 103.743 407.513 101.842C408.127 99.9329 408.434 97.9822 408.434 95.99C408.434 93.9646 408.131 91.9932 407.525 90.0757C406.927 88.1582 406.031 86.3984 404.836 84.7964H406.853C408.073 86.249 409.003 87.9382 409.642 89.864C410.281 91.7815 410.601 93.8318 410.601 96.0149Z" fill="white"/>
</svg>
