<svg width="424" height="480" viewBox="0 0 424 480" fill="none" xmlns="http://www.w3.org/2000/svg">
<g filter="url(#filter0_d_3_256)">
<path fill-rule="evenodd" clip-rule="evenodd" d="M374 419.108H50C55.8971 404.027 61.794 388.945 68.2808 377.445C74.7675 365.944 81.8439 358.024 89.2574 351.916C96.6708 345.807 104.421 341.51 112.972 338.098C121.523 334.686 130.874 332.158 139.635 330.579C148.396 328.999 156.568 328.367 165.034 327.988C173.501 327.609 182.262 327.482 189.781 326.408C197.3 325.334 203.576 323.312 208.525 320.952C213.474 318.593 217.097 315.897 221.435 312.021C225.774 308.146 230.828 303.091 236.536 299.173C242.243 295.255 248.604 292.475 253.89 290.853C259.176 289.231 263.389 288.767 268.001 289.273C272.613 289.778 277.626 291.253 283.839 295.592C290.052 299.931 297.465 307.135 303.193 313.685C308.922 320.236 312.966 326.134 317.852 333.464C322.738 340.794 328.466 349.557 333.605 359.162C338.744 368.767 343.293 379.214 348.38 388.671C353.466 398.129 359.089 406.597 363.449 411.504C367.808 416.412 370.904 417.76 374 419.108Z" fill="url(#paint0_linear_3_256)"/>
<path fill-rule="evenodd" clip-rule="evenodd" d="M305.155 333.324C308.293 333.271 311.431 333.218 314.938 333.719C318.445 334.219 322.32 335.272 325.774 336.873C329.228 338.474 332.261 340.622 334.893 343.297C337.526 345.972 339.758 349.174 341.254 352.165C342.749 355.156 343.507 357.936 343.928 361.054C344.349 364.171 344.434 367.626 343.949 371.101C343.465 374.576 342.412 378.073 340.369 381.506C338.326 384.94 335.293 388.31 332.366 390.88C329.438 393.449 326.616 395.219 322.931 396.651C319.245 398.083 314.696 399.179 310.273 399.6C305.85 400.021 301.554 399.768 297.826 399.073C294.098 398.378 290.939 397.241 287.633 395.724C284.326 394.208 280.872 392.312 277.755 391.174C274.638 390.037 271.858 389.658 268.804 389.447C265.75 389.237 262.423 389.195 259.411 389.384C256.399 389.574 253.704 389.995 250.966 390.353C248.228 390.711 245.448 391.006 242.352 389.448C239.256 387.89 235.844 384.479 233.485 381.067C231.126 377.654 229.821 374.241 229.169 371.15C228.517 368.059 228.518 365.291 228.95 362.51C229.382 359.73 230.244 356.937 231.411 354.593C232.579 352.249 234.054 350.353 235.886 348.489C237.718 346.625 239.909 344.793 241.762 343.455C243.615 342.118 245.132 341.275 246.627 340.538C248.123 339.801 249.597 339.169 251.124 338.695C252.651 338.221 254.23 337.905 255.507 337.648C256.784 337.39 257.331 337.298 258.526 337.242C261.264 333.914 264.002 330.586 267.435 327.932C270.868 325.278 274.996 323.298 278.766 322.345C282.536 321.391 285.948 321.465 289.381 322.091C292.813 322.718 296.267 323.898 298.9 325.862C301.533 327.826 303.344 330.575 305.155 333.324Z" fill="#516056"/>
<path fill-rule="evenodd" clip-rule="evenodd" d="M338.454 384.347C336.265 385.975 334.074 387.607 331.146 388.401C328.218 389.196 324.553 389.154 320.678 388.67C316.803 388.185 314.362 387.814 311.108 386.508C307.854 385.202 305.43 383.214 303.64 381.34C301.85 379.465 299.87 377.274 298.227 375.063C296.584 372.851 295.278 370.618 293.994 368.575C292.709 366.532 291.445 364.678 290.194 363.4C288.943 362.121 287.703 361.418 286.082 360.723C284.46 360.028 282.456 359.341 280.211 359.292C277.966 359.244 275.481 359.834 272.849 360.571C270.216 361.308 267.436 362.193 264.088 362.937C260.739 363.682 256.822 364.286 253.41 363.971C249.998 363.655 247.092 362.418 244.901 360.894C242.711 359.37 241.236 357.559 240.336 355.721C239.436 353.883 239.109 352.019 239.091 350.241C239.072 348.463 239.361 346.771 239.659 345.073C240.387 344.48 241.096 343.936 241.762 343.455C243.615 342.118 245.132 341.275 246.627 340.538C248.122 339.801 249.597 339.169 251.124 338.695C252.651 338.221 254.23 337.905 255.507 337.648C256.784 337.39 257.331 337.298 258.526 337.242C259.369 338.439 260.212 339.637 261.844 340.815C263.476 341.993 265.898 343.151 267.952 343.868C270.005 344.584 271.69 344.857 273.175 345.005C274.66 345.152 275.944 345.173 277.282 344.984C278.619 344.794 280.009 344.394 281.399 343.994C279.398 343.573 277.398 343.152 275.818 342.678C274.239 342.204 273.08 341.677 272.038 340.856C270.995 340.034 270.068 338.918 269.384 337.833C268.699 336.748 268.257 335.695 268.057 334.326C267.857 332.957 267.899 331.272 268.336 329.812C268.772 328.352 269.603 327.118 270.432 325.885C273.132 324.258 276.042 323.033 278.766 322.345C282.536 321.391 285.948 321.465 289.381 322.091C292.813 322.718 296.267 323.898 298.9 325.862C301.533 327.826 303.344 330.575 305.155 333.324C308.293 333.271 311.431 333.218 314.938 333.719C318.445 334.219 322.32 335.272 325.774 336.873C329.228 338.474 332.261 340.622 334.893 343.297C337.526 345.972 339.758 349.174 341.254 352.165C342.749 355.156 343.507 357.936 343.928 361.054C344.349 364.171 344.434 367.626 343.949 371.101C343.465 374.576 342.412 378.073 340.369 381.506C339.799 382.465 339.152 383.418 338.454 384.347Z" fill="url(#paint1_linear_3_256)"/>
<path fill-rule="evenodd" clip-rule="evenodd" d="M275.068 359.624L278.416 359.308L278.543 376.685C278.543 376.685 283.471 371.82 285.809 369.671C288.146 367.523 290.421 365.88 290.421 365.88L291.685 366.638C291.685 366.638 288.336 369.987 286.946 371.504C285.556 373.02 278.48 380.729 278.48 380.729L278.416 405.437C278.416 405.437 282.776 400.066 286.188 396.78C289.6 393.494 297.118 389.134 297.118 389.134C297.118 389.134 300.214 387.807 301.731 387.364C303.247 386.922 303.121 386.859 303.121 386.859L304.005 389.071C304.005 389.071 301.099 389.639 299.33 390.65C297.561 391.661 290.547 395.579 287.641 399.055C284.735 402.53 279.68 409.608 279.68 409.608L279.364 414.884L279.892 419.108H273.079L274.436 407.364L262.684 388.849L258.177 382.333L257.993 379.742L263.505 386.385L274.562 401.74L275.131 386.954L275.384 369.955L275.068 359.624Z" fill="#584435"/>
<path fill-rule="evenodd" clip-rule="evenodd" d="M154.675 359.573C156.806 359.537 158.937 359.501 161.318 359.841C163.699 360.18 166.331 360.895 168.676 361.982C171.022 363.07 173.081 364.529 174.869 366.345C176.657 368.162 178.173 370.336 179.188 372.367C180.204 374.398 180.719 376.286 181.005 378.403C181.291 380.52 181.348 382.866 181.019 385.226C180.69 387.586 179.975 389.96 178.588 392.292C177.2 394.623 175.141 396.912 173.153 398.657C171.165 400.402 169.248 401.603 166.746 402.576C164.243 403.549 161.154 404.293 158.15 404.579C155.147 404.865 152.229 404.693 149.698 404.221C147.166 403.749 145.021 402.977 142.776 401.947C140.53 400.917 138.185 399.63 136.068 398.857C133.952 398.085 132.064 397.827 129.99 397.684C127.916 397.541 125.657 397.513 123.611 397.641C121.566 397.77 119.736 398.056 117.876 398.299C116.017 398.543 114.129 398.743 112.027 397.685C109.924 396.627 107.608 394.31 106.006 391.993C104.404 389.676 103.517 387.358 103.075 385.259C102.632 383.16 102.633 381.28 102.926 379.392C103.219 377.504 103.804 375.608 104.598 374.016C105.391 372.424 106.392 371.137 107.636 369.871C108.88 368.605 110.368 367.361 111.626 366.452C112.885 365.544 113.915 364.972 114.93 364.471C115.946 363.971 116.947 363.542 117.984 363.22C119.02 362.898 120.093 362.683 120.96 362.509C121.827 362.334 122.199 362.272 123.01 362.233C124.87 359.973 126.729 357.713 129.06 355.911C131.391 354.109 134.195 352.764 136.755 352.117C139.315 351.469 141.632 351.519 143.963 351.945C146.294 352.37 148.639 353.171 150.427 354.505C152.215 355.839 153.445 357.706 154.675 359.573Z" fill="#516056"/>
<path fill-rule="evenodd" clip-rule="evenodd" d="M134.251 377.676L136.517 377.217L136.603 389.018C136.603 389.018 139.95 385.714 141.537 384.255C143.125 382.796 144.669 381.68 144.669 381.68L145.527 382.195C145.527 382.195 143.253 384.469 142.31 385.499C141.366 386.529 136.56 391.764 136.56 391.764L136.517 408.542C136.517 408.542 139.478 404.895 141.795 402.664C144.112 400.432 149.217 397.471 149.217 397.471C149.217 397.471 151.32 396.57 152.349 396.27C153.379 395.969 153.293 395.927 153.293 395.927L153.894 397.428C153.894 397.428 151.92 397.815 150.719 398.501C149.518 399.188 144.755 401.848 142.781 404.208C140.808 406.569 137.375 411.375 137.375 411.375L137.161 414.957L137.59 419.465H133.746L133.856 413.965L133.9 406.032L134.066 401.735L134.066 401.725L134.286 395.991L134.312 394.284L134.312 394.28L134.312 394.28L134.458 384.448L134.251 377.676Z" fill="#584435"/>
<path fill-rule="evenodd" clip-rule="evenodd" d="M146.675 405.839H255.546L254.97 397.75H146.675V405.839Z" fill="#ECDBBC"/>
<path fill-rule="evenodd" clip-rule="evenodd" d="M146.675 397.75H254.97L254.395 389.662H146.675V397.75Z" fill="#CDBA97"/>
<path fill-rule="evenodd" clip-rule="evenodd" d="M146.675 389.662H254.395L253.82 381.573H168.963L146.675 389.661V389.662Z" fill="#ECDBBC"/>
<path fill-rule="evenodd" clip-rule="evenodd" d="M168.963 381.573H253.82L253.244 373.485H181.722L181.47 377.035L168.963 381.573Z" fill="#CDBA97"/>
<path fill-rule="evenodd" clip-rule="evenodd" d="M181.722 373.485H253.244L252.669 365.397H182.298L181.722 373.485Z" fill="#ECDBBC"/>
<path fill-rule="evenodd" clip-rule="evenodd" d="M182.298 365.397H252.669L252.262 359.683H182.704L182.704 359.683L182.298 365.397Z" fill="#CDBA97"/>
<path fill-rule="evenodd" clip-rule="evenodd" d="M257.334 420L256.247 415.701L256.121 413.927H146.675V420H257.334Z" fill="#ECDBBC"/>
<path fill-rule="evenodd" clip-rule="evenodd" d="M146.675 413.927H256.121L255.546 405.839H146.675V413.927Z" fill="#CDBA97"/>
<path fill-rule="evenodd" clip-rule="evenodd" d="M217.314 359.683H182.704L183.245 352.083L217.314 343.974L251.383 352.083L251.924 359.683H217.314Z" fill="#74644D"/>
<path fill-rule="evenodd" clip-rule="evenodd" d="M144.182 387.197L177.299 375.168L177.043 378.756L144.182 390.693V387.197Z" fill="#74644D"/>
<path d="M226.413 393.009H207.079V415.701H226.413V393.009Z" fill="#74644D"/>
<path d="M226.413 396.295H211.755V415.701H226.413V396.295Z" fill="#94846D"/>
<path d="M217.483 420H174.11C183.097 293.637 192.087 167.273 201.079 40.9104H217.483H233.887C242.879 167.273 251.869 293.637 260.856 420H217.483ZM217.483 45.2093H205.076L178.719 415.701H217.483H256.247L254.601 392.561L229.89 45.2093H217.483Z" fill="#6B6B6B"/>
<path d="M247.671 79.4232H187.269V91.0503H247.671V79.4232Z" fill="#B0B0AF"/>
<path fill-rule="evenodd" clip-rule="evenodd" d="M201.815 91.0503H233.151L233.444 95.1726H201.523L201.815 91.0503Z" fill="#4D4D4D"/>
<path d="M271.431 205.867H163.515V217.494H271.431V205.867Z" fill="#B0B0AF"/>
<path d="M187.429 293.202L254.524 391.479L255.229 401.387L186.855 301.234L187.429 293.202Z" fill="#B0B0AF"/>
<path d="M187.433 293.208L242.466 221.978L241.883 213.786L188.121 283.538L187.433 293.208V293.208Z" fill="#B0B0AF"/>
<path fill-rule="evenodd" clip-rule="evenodd" d="M192.82 217.494H242.147L242.43 221.617H192.552L192.82 217.494Z" fill="#4D4D4D"/>
<path d="M197.969 145.119L240.615 195.959L241.32 205.867L197.395 153.18L197.969 145.119Z" fill="#B0B0AF"/>
<path fill-rule="evenodd" clip-rule="evenodd" d="M198.261 141.097H236.713L237.005 145.22H197.961L198.261 141.097Z" fill="#828082"/>
<path d="M198.934 131.599L227.818 95.1726H233.297L198.397 139.187L198.934 131.599Z" fill="#B0B0AF"/>
<path fill-rule="evenodd" clip-rule="evenodd" d="M186.509 306.073H248.442L248.744 310.196H186.212L186.509 306.073Z" fill="#828082"/>
</g>
<defs>
<filter id="filter0_d_3_256" x="0" y="0.9104" width="424" height="479.09" filterUnits="userSpaceOnUse" color-interpolation-filters="sRGB">
<feFlood flood-opacity="0" result="BackgroundImageFix"/>
<feColorMatrix in="SourceAlpha" type="matrix" values="0 0 0 0 0 0 0 0 0 0 0 0 0 0 0 0 0 0 127 0" result="hardAlpha"/>
<feOffset dy="10"/>
<feGaussianBlur stdDeviation="25"/>
<feComposite in2="hardAlpha" operator="out"/>
<feColorMatrix type="matrix" values="0 0 0 0 0 0 0 0 0 0 0 0 0 0 0 0 0 0 0.7 0"/>
<feBlend mode="normal" in2="BackgroundImageFix" result="effect1_dropShadow_3_256"/>
<feBlend mode="normal" in="SourceGraphic" in2="effect1_dropShadow_3_256" result="shape"/>
</filter>
<linearGradient id="paint0_linear_3_256" x1="50" y1="354.093" x2="374" y2="354.093" gradientUnits="userSpaceOnUse">
<stop stop-color="#63746A"/>
<stop offset="0.27451" stop-color="#63746A"/>
<stop offset="0.580392" stop-color="#E0CDAA"/>
<stop offset="1" stop-color="#64746A"/>
</linearGradient>
<linearGradient id="paint1_linear_3_256" x1="239.09" y1="355.321" x2="344.28" y2="355.321" gradientUnits="userSpaceOnUse">
<stop stop-color="#617568"/>
<stop offset="0.439216" stop-color="#596B5F"/>
<stop offset="1" stop-color="#516056"/>
</linearGradient>
</defs>
</svg>
